<svg width="104" height="106" viewBox="0 0 104 106" fill="none" xmlns="http://www.w3.org/2000/svg">
<path d="M4.71813 16.3971H16.3108V4.67239L4.71813 16.3971ZM93.6046 37.3591C92.85 37.3591 92.1702 37.7557 91.6914 38.4761C91.2215 39.1828 90.8197 39.9109 90.3945 40.6819C90.2109 41.0141 90.0259 41.3495 89.8333 41.6856L89.7358 41.8556L99.0618 47.3068L99.1623 47.1521C99.2242 47.0557 99.2824 46.9684 99.3367 46.8865C99.4478 46.7195 99.543 46.5756 99.6313 46.4225C99.7627 46.1936 99.8972 45.9662 100.032 45.738C100.386 45.1362 100.752 44.5138 101.066 43.8737C101.614 42.7575 101.234 41.5057 100.142 40.8296C98.3858 39.7424 96.6251 38.6997 94.9075 37.7296C94.4725 37.4831 94.0336 37.3591 93.6046 37.3591ZM86.1851 48.0693L95.5556 53.5458L97.9077 49.4413L88.5364 43.9158L86.1851 48.0693ZM68.9735 78.1062L72.6444 80.266L88.6406 52.2833L84.9939 50.1357L68.9735 78.1062ZM74.6996 81.4834L78.3531 83.6378L94.3516 55.662L90.7094 53.503L74.6996 81.4834ZM68.6079 89.8225L76.4029 85.2747L68.6079 80.6856V89.8225ZM2.74447 103.051H74.7306V89.0806L74.0953 89.4313C73.8846 89.5469 73.7011 89.6479 73.519 89.7528L72.2833 90.4679C70.9313 91.2489 69.5324 92.0566 68.163 92.8613C67.8194 93.0626 67.4916 93.169 67.2136 93.169C66.8805 93.169 66.6343 93.0197 66.4613 92.7127C65.9915 91.8805 65.3736 91.8805 64.7762 91.8805H64.7293C58.7064 91.8843 52.7008 91.8858 46.696 91.8858L33.5307 91.8843C31.8146 91.8836 31.591 91.1999 31.5721 90.6846C31.5593 90.3485 31.6409 90.0928 31.8214 89.9029C32.1145 89.5943 32.6961 89.4382 33.5496 89.4382H66.0693V82.4251L33.4967 82.4243C32.6968 82.4243 32.1401 82.2696 31.8418 81.9649C31.6598 81.7789 31.5721 81.5347 31.5752 81.22C31.5797 80.6726 31.807 80.0448 33.533 80.0448L66.2045 80.044L66.1599 79.8112C65.9114 78.5135 66.487 77.5657 67.0965 76.5619C67.2083 76.3782 67.3193 76.1952 67.4251 76.0099C68.2076 74.6418 68.9924 73.2744 69.7772 71.907C71.278 69.2916 72.8302 66.5874 74.3408 63.9177C74.6211 63.4223 74.7819 62.8573 74.7827 62.3666C74.8008 46.3084 74.8046 29.2871 74.7955 7.17674C74.7948 4.38222 73.0862 2.64502 70.3361 2.64502C63.0676 2.64273 55.7969 2.64273 48.5276 2.64273C39.0317 2.64273 29.5373 2.64349 20.0421 2.64502C19.8087 2.64502 19.5746 2.6611 19.3276 2.67718C19.2052 2.6856 19.0783 2.69402 18.9439 2.70168L18.7603 2.71163L18.7611 7.58098C18.7619 10.7759 18.7619 13.9709 18.7588 17.1658C18.7573 18.547 18.4235 18.8846 17.0571 18.8854C15.1046 18.8869 13.1521 18.8869 11.1996 18.8869L2.74447 18.8862V103.051ZM2.27994 105.486C0.575178 105.486 0.275315 105.181 0.275315 103.447V90.8102C0.27607 67.0881 0.27607 42.5592 0.261719 18.4337C0.261719 17.554 0.513997 16.9239 1.10693 16.3267C4.61012 12.801 8.15636 9.20027 11.5855 5.71823C13.0984 4.18239 14.6106 2.64655 16.125 1.11225C16.3501 0.884094 16.5963 0.665127 16.8343 0.453815C16.931 0.368066 17.0276 0.282316 17.1228 0.195801H71.6572C71.8022 0.242504 71.948 0.28691 72.0937 0.331316C72.4178 0.429315 72.7524 0.531143 73.0636 0.661299C75.8182 1.81509 77.2141 4.14488 77.2141 7.58634C77.2148 19.8562 77.2126 32.1268 77.2095 44.3967L77.2073 58.1219L77.5071 57.9206C77.9226 57.6419 78.1144 57.3441 78.2761 57.0631C79.8388 54.3344 81.4008 51.6057 82.9628 48.8771C85.1238 45.1026 87.2848 41.3273 89.4473 37.5535C90.4118 35.8715 91.8651 34.9451 93.5396 34.9451C94.3947 34.9451 95.2633 35.1878 96.1206 35.6663C96.6818 35.9794 97.2453 36.3171 97.7898 36.6432C98.5248 37.0834 99.2839 37.539 100.056 37.9448C102.163 39.0526 103.333 40.4353 103.737 42.2935V43.592C103.099 44.7596 102.465 45.9302 101.831 47.1008C100.447 49.6565 99.0157 52.2994 97.5557 54.8665C94.4913 60.255 91.3598 65.7238 88.3309 71.0127C85.7288 75.5559 83.0384 80.2538 80.4023 84.8812C79.9302 85.7088 79.3554 86.5303 78.3501 86.9285C77.384 87.3113 77.1914 88.0095 77.199 88.9405C77.2299 92.7311 77.2247 96.5852 77.2201 100.314C77.2194 101.38 77.2179 102.448 77.2171 103.515C77.2163 105.191 76.921 105.486 75.2419 105.486H2.27994Z" fill="black"/>
<path d="M68.8013 89.4835V81.0265C71.2221 82.4513 73.5379 83.8149 76.0169 85.2741C73.578 86.6967 71.247 88.0564 68.8013 89.4835ZM78.2829 83.3693C77.1491 82.7009 76.103 82.0838 74.964 81.4123C80.2361 72.1973 85.4811 63.0313 90.7797 53.7719C91.9316 54.4548 92.9769 55.075 94.088 55.7334C88.8083 64.9653 83.5633 74.1367 78.2829 83.3693ZM72.5734 79.9982C71.4313 79.326 70.3625 78.6975 69.2379 78.0352C74.5259 68.8026 79.7618 59.661 85.0634 50.4039C86.1624 51.0509 87.2259 51.6771 88.3763 52.3547C83.1049 61.5759 77.8644 70.7426 72.5734 79.9982ZM95.4854 53.2788C92.455 51.5079 89.4941 49.7776 86.4487 47.9976C87.1806 46.7052 87.8755 45.4771 88.6074 44.1848C91.6219 45.9618 94.5797 47.7059 97.6441 49.5127C96.919 50.7775 96.221 51.9949 95.4854 53.2788ZM99.0006 47.0444C95.968 45.272 93.029 43.5547 90.0002 41.7838C90.6271 40.6889 91.18 39.5964 91.8515 38.5858C92.3054 37.9036 92.9241 37.5553 93.6046 37.5553C93.9943 37.5553 94.4037 37.6693 94.8139 37.9006C96.576 38.8966 98.3193 39.931 100.041 40.9975C101.057 41.6261 101.397 42.7615 100.893 43.7867C100.466 44.6572 99.9478 45.4825 99.4644 46.3239C99.3368 46.546 99.188 46.7542 99.0006 47.0444ZM5.18568 16.2013C8.80443 12.5416 12.4443 8.85977 16.1175 5.14498V16.2013H5.18568ZM11.2585 19.0831C13.1913 19.0831 15.1242 19.0823 17.0571 19.0816C18.5247 19.0808 18.9507 18.6536 18.9522 17.166C18.9567 12.7951 18.9537 8.42413 18.9537 4.05397V2.89711C19.3631 2.87567 19.7022 2.84122 20.0421 2.84122C29.5615 2.83969 39.0778 2.83816 48.5971 2.83816C55.843 2.83816 63.091 2.83892 70.3361 2.84122C72.9835 2.84199 74.6014 4.47353 74.6022 7.17693C74.6097 25.5733 74.6097 43.9696 74.5893 62.366C74.5886 62.8537 74.4156 63.3927 74.1731 63.8207C71.886 67.8608 69.5627 71.8811 67.2582 75.9114C66.5731 77.1096 65.6599 78.2281 65.9696 79.8482H33.533C32.0676 79.849 31.3901 80.2815 31.3818 81.2186C31.3735 82.1489 32.0812 82.6205 33.4967 82.6205C39.1858 82.6213 44.8741 82.6213 50.564 82.6213H65.8759V89.2424H33.5503C32.0389 89.2424 31.3418 89.7086 31.3788 90.6924C31.4135 91.6296 32.1039 92.0805 33.5307 92.0805C37.8942 92.0813 42.257 92.0813 46.6205 92.0813C52.6502 92.0813 58.6815 92.0805 64.712 92.0767H64.7784C65.397 92.0767 65.8895 92.0943 66.2936 92.8102C66.5172 93.2067 66.8465 93.3652 67.2136 93.3652C67.5474 93.3652 67.913 93.2343 68.2597 93.0307C70.0393 91.9856 71.8286 90.9566 73.6157 89.9238C73.8891 89.7653 74.1679 89.616 74.5372 89.4108V102.855H2.93783V19.0823H4.28306C6.60795 19.0823 8.93359 19.0831 11.2585 19.0831ZM71.6881 0H17.0488C16.6945 0.323858 16.3252 0.632403 15.9883 0.97387C10.9835 6.04688 5.99312 11.1337 0.970216 16.1883C0.322148 16.8406 0.0683594 17.5205 0.0683594 18.4346C0.0849766 46.7718 0.0819552 75.1098 0.0819552 103.447C0.0819552 105.289 0.468681 105.682 2.27995 105.682H75.2419C77.029 105.681 77.4097 105.304 77.4105 103.515C77.4127 98.6564 77.4316 93.797 77.3923 88.9384C77.3855 88.0579 77.563 87.4508 78.4211 87.1116C79.4234 86.7143 80.0352 85.9173 80.5692 84.9794C86.2742 74.9666 92.0267 64.9821 97.7234 54.9647C99.8504 51.2247 101.865 47.4188 103.931 43.6427V42.2723C103.462 40.0856 102.024 38.7596 100.145 37.7712C98.8065 37.0676 97.5361 36.2323 96.2142 35.495C95.3147 34.9927 94.4068 34.7493 93.5404 34.7493C91.8379 34.7493 90.2933 35.6887 89.2804 37.455C85.5544 43.9574 81.8329 50.4621 78.1084 56.9653C77.952 57.2379 77.7806 57.5028 77.4014 57.7569C77.4014 57.394 77.4006 57.0304 77.4014 56.6667C77.4037 40.3069 77.4082 23.9463 77.4074 7.58654C77.4074 4.08689 75.9451 1.6568 73.1376 0.48081C72.6685 0.284811 72.1715 0.158484 71.6881 0ZM68.4146 90.1611L68.9947 89.8235L71.8936 88.1314L76.2095 85.6133L76.7896 85.2757L76.211 84.935L68.9954 80.6873L68.4146 80.3458V90.1611ZM78.4234 83.906L78.6175 83.566L86.3286 70.0835L94.4226 55.9294L94.616 55.5918L94.2836 55.395L90.9746 53.4335L90.64 53.2344L90.4451 53.5751L83.6358 65.4752L74.6294 81.2156L74.4352 81.554L74.7691 81.7508L74.8862 81.8204L78.0887 83.7085L78.4234 83.906ZM72.7146 80.5342L72.9087 80.195L87.2795 55.0543L88.7109 52.5515L88.9042 52.2123L88.5704 52.0155L85.2583 50.0647L84.9237 49.868L84.7296 50.2072L71.2674 73.711L68.9033 77.8384L68.7091 78.1776L69.0437 78.3744L72.3793 80.3374L72.7146 80.5342ZM95.6258 53.8132L95.8192 53.4756L96.6697 51.9926L97.9779 49.7095L98.172 49.3703L97.8382 49.1736L97.036 48.7004L88.8015 43.8456L88.4654 43.6473L88.272 43.9895L87.1836 45.9113L86.1133 47.8023L85.9214 48.1415L86.2553 48.3375L92.5298 52.0041L95.292 53.618L95.6258 53.8132ZM99.1237 47.5688L99.3239 47.2595C99.3858 47.1638 99.4433 47.0773 99.4969 46.9961C99.6102 46.8269 99.7076 46.6799 99.7983 46.5215C99.9297 46.2925 100.063 46.0651 100.198 45.8378C100.554 45.2329 100.922 44.6074 101.239 43.9612C101.834 42.7508 101.424 41.3941 100.243 40.6629C98.4817 39.5727 96.718 38.5284 95.002 37.5583C94.5374 37.2957 94.0676 37.1633 93.6046 37.1633C92.7836 37.1633 92.0471 37.5905 91.5312 38.3668C91.0569 39.0796 90.6347 39.8452 90.226 40.5848C90.0448 40.9133 89.8574 41.2532 89.6663 41.587L89.4715 41.9277L89.8076 42.1237L96.9718 46.3109L98.8073 47.3843L99.1237 47.5688ZM4.25059 16.5933H16.5042V4.2002L15.844 4.86782L10.6663 10.1047L4.91225 15.9242L4.25059 16.5933ZM11.2585 18.6911L7.77115 18.6903H2.55111V103.247H74.9239V88.7501L74.3522 89.067C74.2283 89.1359 74.115 89.198 74.0085 89.2569C73.794 89.374 73.6089 89.4759 73.4239 89.5831L72.1897 90.2966C70.8361 91.0783 69.4373 91.886 68.0664 92.6915C67.7521 92.876 67.4576 92.9732 67.2136 92.9732C66.9523 92.9732 66.7664 92.8599 66.629 92.6157C66.104 91.6847 65.3683 91.6847 64.7784 91.6847H64.7112C58.6815 91.6885 52.6502 91.6893 46.6205 91.6893C42.257 91.6893 37.8942 91.6893 33.5307 91.6885C31.8025 91.6878 31.7761 90.9796 31.7648 90.6771C31.7549 90.3977 31.8184 90.1887 31.9611 90.0386C32.2157 89.7706 32.7505 89.6344 33.5503 89.6344H66.2626V82.2293H50.564C44.8741 82.2293 39.1858 82.2293 33.4967 82.2285C32.761 82.2285 32.2361 82.0899 31.9793 81.8273C31.835 81.6796 31.7663 81.482 31.7685 81.2217C31.7716 80.9032 31.7768 80.241 33.533 80.2402H66.4386L66.3495 79.7739C66.1161 78.5512 66.672 77.6348 67.2612 76.664C67.3715 76.4833 67.4848 76.2965 67.5928 76.1081C68.3768 74.7369 69.1631 73.3664 69.9494 71.996C71.4487 69.3837 72.9994 66.6818 74.5085 64.0151C74.8054 63.4914 74.9753 62.8912 74.9761 62.3668C74.9942 46.4418 74.998 28.9053 74.9889 7.17693C74.9881 4.26145 73.2048 2.44999 70.3369 2.44922C63.091 2.44693 55.843 2.44616 48.5971 2.44616C39.0778 2.44616 29.5615 2.44769 20.0421 2.44922C19.8019 2.44922 19.5655 2.4653 19.3148 2.48214C19.1932 2.49057 19.067 2.49899 18.9333 2.50588L18.567 2.52578V4.05397L18.5677 7.76723C18.5677 10.8994 18.5685 14.0323 18.5655 17.166C18.564 18.4323 18.3102 18.6888 17.0571 18.6896C15.1242 18.6903 13.1913 18.6911 11.2585 18.6911ZM71.6277 0.391998C71.7637 0.435639 71.9011 0.476982 72.0378 0.519091C72.3717 0.620153 72.6874 0.715856 72.9896 0.842949C75.6649 1.96305 77.0207 4.23159 77.0207 7.58654C77.0215 19.593 77.0192 31.5987 77.0169 43.6052L77.0147 56.6667V58.4866L77.6144 58.0839C78.0646 57.7822 78.2708 57.4629 78.443 57.1621C79.9959 54.4502 81.5481 51.7392 83.1003 49.0273C85.2711 45.2352 87.4427 41.4431 89.615 37.6525C90.5425 36.0332 91.9368 35.1413 93.5404 35.1413C94.3622 35.1413 95.1991 35.3755 96.0269 35.838C96.5866 36.1503 97.1486 36.4872 97.6917 36.8126C98.4281 37.2544 99.1902 37.7107 99.9667 38.1188C102.039 39.209 103.144 40.5044 103.544 42.3151V43.5409C102.912 44.6954 102.276 45.8699 101.662 47.0069C100.278 49.5617 98.8473 52.2031 97.388 54.7687C94.3222 60.1602 91.1883 65.6329 88.1572 70.9256C85.5574 75.465 82.8684 80.1598 80.2346 84.7834C79.7807 85.5804 79.2293 86.3697 78.2798 86.7464C77.1484 87.1943 76.9988 88.0664 77.0056 88.9422C77.0366 92.7267 77.0313 96.5755 77.0268 100.298C77.0253 101.371 77.0245 102.442 77.0237 103.515C77.023 105.074 76.8062 105.289 75.2419 105.29H2.27995C0.689236 105.29 0.468681 105.065 0.468681 103.447V90.8525C0.469436 67.1174 0.469436 42.5739 0.455085 18.4339C0.455085 17.6001 0.683193 17.0297 1.24289 16.4662C4.74306 12.9444 8.28552 9.34671 11.7109 5.86849C13.2276 4.32882 14.7443 2.78916 16.2617 1.25103C16.4823 1.0267 16.7157 0.819215 16.9634 0.599482C17.0412 0.530576 17.119 0.46167 17.1961 0.391998H71.6277Z" fill="white"/>
<path d="M9.37385 31.7965C9.37612 38.3609 9.37838 45.1497 9.35044 51.8251C9.34817 52.3465 9.43352 52.6566 9.63519 52.8618C9.88521 53.1167 10.2772 53.1512 10.6632 53.1512C15.7813 53.1336 20.8782 53.1313 25.6261 53.1313H36.0541C36.2913 53.1313 36.5224 53.1159 36.7664 53.0991C36.879 53.0922 36.9923 53.0846 37.1078 53.0784L37.2914 53.0685V24.814H9.37234C9.37234 24.814 9.3731 29.8679 9.37385 31.7965ZM23.1374 55.5491C18.3327 55.5491 13.5289 55.5483 8.72427 55.546C7.37602 55.5453 7.00667 55.1739 7.00591 53.8188C7.00365 50.2012 7.00365 46.5837 7.0044 42.9661V34.8444C7.00365 31.2544 7.00365 27.6652 7.00516 24.0752C7.00591 22.7024 7.35714 22.3464 8.71521 22.3456C13.5614 22.3433 18.409 22.3418 23.2552 22.3418C28.1905 22.3418 33.1235 22.3433 38.058 22.3464C39.37 22.3472 39.7499 22.7215 39.7507 24.0154C39.759 33.3384 39.7598 43.0993 39.7522 53.8571C39.7507 55.1494 39.3572 55.5445 38.0671 55.5453C33.091 55.5483 28.1134 55.5491 23.1374 55.5491Z" fill="black"/>
<path d="M10.6632 52.9549C9.81421 52.9549 9.54002 52.7436 9.5438 51.8263C9.58006 43.2208 9.5657 34.6152 9.5657 26.0096V25.0097H37.098V52.8821C36.7347 52.9013 36.3948 52.935 36.0541 52.935C35.0118 52.9357 33.9702 52.9357 32.9279 52.9357C30.4987 52.9357 28.0696 52.935 25.6405 52.935C20.6546 52.935 15.668 52.9373 10.6821 52.9549H10.6632ZM23.2537 22.1455C18.4083 22.1455 13.5606 22.147 8.71521 22.1493C7.2529 22.1501 6.81255 22.6072 6.8118 24.0749C6.80953 29.0323 6.81104 33.9897 6.81104 38.9463C6.81104 43.9037 6.80953 48.8611 6.81255 53.8185C6.81331 55.2824 7.2597 55.741 8.72427 55.7417C13.5417 55.744 18.3584 55.7456 23.1766 55.7456C28.1399 55.7456 33.1038 55.744 38.0671 55.741C39.4569 55.7394 39.9441 55.2548 39.9456 53.8568C39.9524 43.9091 39.9531 33.9621 39.9441 24.0152C39.9433 22.6102 39.4674 22.1509 38.058 22.1501C33.1227 22.147 28.189 22.1455 23.2537 22.1455ZM10.6632 53.3469H10.6828C15.7828 53.3293 20.8857 53.327 25.6405 53.327H29.2842L32.9279 53.3277C33.9702 53.3277 35.0118 53.3277 36.0541 53.327C36.2974 53.327 36.5421 53.3109 36.7785 53.2948C36.8903 53.2872 37.0028 53.2795 37.1176 53.2734L37.4847 53.2542V24.6177H9.17898V26.0096C9.17898 27.9459 9.17973 29.8821 9.18049 31.8176C9.18276 38.3751 9.18502 45.1563 9.15707 51.8248C9.15556 52.2321 9.19484 52.6907 9.49848 53C9.79834 53.3048 10.2357 53.3469 10.6632 53.3469ZM23.2537 22.5375C28.189 22.5375 33.1227 22.539 38.058 22.5421C39.262 22.5429 39.5566 22.8323 39.5573 24.0152C39.5656 33.3695 39.5664 43.1304 39.5588 53.856C39.5581 55.0412 39.2507 55.3482 38.0663 55.349C33.1031 55.352 28.1399 55.3536 23.1766 55.3536C18.3584 55.3536 13.5417 55.352 8.72427 55.3497C7.47044 55.349 7.20003 55.0772 7.19928 53.8177C7.19701 50.2446 7.19701 46.6714 7.19777 43.0975V34.8954C7.19701 31.2886 7.19701 27.6817 7.19852 24.0749C7.19928 22.8147 7.46893 22.5421 8.71521 22.5413C13.5606 22.539 18.4083 22.5375 23.2537 22.5375Z" fill="white"/>
<path d="M64.9964 63.5258C64.9065 63.5258 64.8143 63.5205 64.7229 63.5151C64.6263 63.5098 64.5319 63.5044 64.4427 63.5044C50.3582 63.5075 36.2714 63.5075 22.1869 63.5075L14.5921 63.5082C14.5498 63.5082 14.5083 63.5075 14.4667 63.5067C12.9629 63.483 12.7695 62.8345 12.7695 62.2725C12.7688 61.856 12.8942 61.5613 13.1517 61.3691C13.4259 61.1654 13.8708 61.0621 14.4743 61.0621C18.7577 61.0605 23.0412 61.0605 27.3254 61.0605H47.6277C53.2367 61.0605 58.8443 61.0613 64.4533 61.0628L64.8287 61.0605C65.0372 61.0605 65.2592 61.0659 65.4707 61.1103C65.8159 61.1815 66.0939 61.3576 66.2532 61.6049C66.3824 61.8055 66.4232 62.0382 66.3711 62.2802C66.2804 62.7051 65.7842 63.13 65.362 63.4516C65.297 63.5013 65.1769 63.5258 64.9964 63.5258Z" fill="black"/>
<path d="M64.8287 60.8647C64.7041 60.8647 64.5794 60.867 64.4563 60.867H64.4533C58.7415 60.8655 53.0298 60.8647 47.318 60.8647H27.3065C23.0291 60.8647 18.7517 60.8647 14.4735 60.8663C13.1744 60.8663 12.5754 61.318 12.5762 62.2727C12.5769 63.2252 13.1804 63.6822 14.4637 63.7029C14.506 63.7044 14.5491 63.7044 14.5921 63.7044C14.6458 63.7044 14.6994 63.7037 14.753 63.7037H22.9279C36.7654 63.7037 50.6052 63.7037 64.4427 63.7006H64.4435C64.6164 63.7006 64.8128 63.722 64.9956 63.722C65.1844 63.722 65.3589 63.6998 65.4783 63.6087C65.9216 63.2703 66.4549 62.8148 66.5606 62.3217C66.7026 61.6549 66.2487 61.0715 65.51 60.9183C65.2887 60.8724 65.0591 60.8647 64.8287 60.8647ZM64.8287 61.2567C65.0273 61.2567 65.2373 61.2621 65.4322 61.3019C65.726 61.3632 65.9602 61.5086 66.0916 61.7123C66.1913 61.8677 66.223 62.0499 66.1822 62.2383C66.0946 62.6479 65.4783 63.118 65.2456 63.2948C65.2411 63.2987 65.1943 63.33 64.9956 63.33C64.914 63.33 64.8264 63.3255 64.7335 63.3201C64.6383 63.3147 64.5394 63.3086 64.4427 63.3086C50.6052 63.3117 36.7654 63.3117 22.9279 63.3117H14.753L14.6714 63.3124H14.5921C14.5513 63.3124 14.5106 63.3124 14.4698 63.3109C13.1457 63.2902 12.9629 62.7995 12.9629 62.2727C12.9629 61.8072 13.1359 61.6242 13.2665 61.5278C13.5067 61.3486 13.9131 61.2583 14.4743 61.2583C18.7517 61.2567 23.0291 61.2567 27.3065 61.2567H47.318C53.0298 61.2567 58.7415 61.2575 64.4563 61.259C64.519 61.259 64.5817 61.2583 64.6451 61.2575C64.7063 61.2567 64.7675 61.2567 64.8287 61.2567Z" fill="white"/>
<path d="M14.3643 71.4676C14.1936 71.4676 13.9919 71.4637 13.7925 71.4362C13.1143 71.3412 12.7729 70.9332 12.7774 70.225C12.7819 69.5627 13.1112 69.1791 13.7563 69.085C13.9557 69.0559 14.1596 69.0513 14.3507 69.0513L14.6914 69.0528C24.281 69.052 33.8721 69.052 43.4616 69.052L64.4785 69.0528C64.7225 69.0528 64.9838 69.0536 65.2421 69.0643C65.9522 69.0926 66.3328 69.4831 66.4076 70.2579C66.4318 70.5105 66.3502 70.7663 66.178 70.9783C65.9612 71.2432 65.6304 71.414 65.2701 71.4477C65.085 71.4645 64.9023 71.4668 64.7474 71.4668L64.3237 71.4645L30.6816 71.4653C25.3958 71.4653 20.1116 71.4653 14.8258 71.4645C14.7465 71.4645 14.4406 71.4676 14.3643 71.4676Z" fill="black"/>
<path d="M14.3515 68.8555C14.1423 68.8555 13.933 68.8608 13.7284 68.8907C12.9828 69.0009 12.5893 69.4726 12.584 70.2236C12.5787 71.0138 12.9753 71.5191 13.7661 71.6301C13.9633 71.6576 14.1634 71.6638 14.3643 71.6638C14.5177 71.6638 14.671 71.6607 14.8243 71.6607H14.8258C20.4673 71.6615 26.1073 71.6615 31.7481 71.6615H46.3017C52.3088 71.6615 58.3166 71.6615 64.3237 71.6607H64.3244C64.4657 71.6607 64.6069 71.663 64.7482 71.663C64.9287 71.663 65.1085 71.6592 65.2875 71.6431C66.0572 71.5719 66.669 70.9494 66.6002 70.2389C66.5232 69.4404 66.1146 68.9029 65.2497 68.8685C64.9929 68.8585 64.7353 68.8562 64.4785 68.8562H43.5138C33.9068 68.8562 24.2991 68.8562 14.6914 68.857H14.6906C14.5781 68.857 14.4648 68.8555 14.3515 68.8555ZM14.3515 69.2475C14.4066 69.2475 14.4625 69.2482 14.5184 69.2482C14.5758 69.249 14.634 69.249 14.6914 69.249C24.2991 69.2482 33.9068 69.2482 43.5138 69.2482H64.4785C64.7202 69.2482 64.9801 69.2498 65.2346 69.2605C65.6153 69.275 66.1304 69.3975 66.2158 70.2772C66.2399 70.5337 66.1274 70.732 66.0285 70.853C65.8449 71.0781 65.5617 71.2243 65.252 71.2526C65.0752 71.2687 64.8985 71.271 64.7482 71.271C64.6787 71.271 64.6085 71.271 64.539 71.2702C64.4672 71.2695 64.3962 71.2687 64.3237 71.2687C58.3166 71.2695 52.3088 71.2695 46.3017 71.2695H31.7481C26.1073 71.2695 20.4673 71.2695 14.8243 71.2687C14.7465 71.2687 14.6687 71.2695 14.5902 71.2702C14.5146 71.271 14.4391 71.2718 14.3643 71.2718C14.2004 71.2718 14.0071 71.2687 13.8197 71.2419C13.2366 71.16 12.967 70.8377 12.9708 70.2267C12.9745 69.6609 13.2329 69.36 13.7842 69.2789C13.9716 69.2513 14.1672 69.2475 14.3515 69.2475Z" fill="white"/>
<path d="M16.0569 78.7895C12.2168 78.8002 9.08976 82.0051 9.0875 85.9335C9.08599 87.8621 9.80959 89.6758 11.1254 91.0386C12.4419 92.4022 14.1935 93.1533 16.0584 93.1533H16.0818C20.011 93.1403 23.2173 89.953 23.2287 86.0491C23.2347 84.0868 22.502 82.2577 21.1659 80.8995C19.8274 79.539 18.0207 78.7895 16.0788 78.7895H16.0569ZM16.1815 95.5321C10.8837 95.5321 6.70521 91.3372 6.6682 85.9817C6.65082 83.4544 7.62595 81.0557 9.4138 79.2274C11.2016 77.3991 13.5673 76.3824 16.075 76.3647H16.1415C18.665 76.3647 21.0443 77.37 22.8404 79.1952C24.6275 81.0113 25.6079 83.4085 25.6011 85.9457C25.5951 88.5182 24.6207 90.9269 22.857 92.7276C21.0949 94.5276 18.736 95.5237 16.2147 95.5321H16.1815Z" fill="black"/>
<path d="M16.0584 92.957C12.312 92.957 9.2786 89.8164 9.28087 85.9332C9.28314 82.1051 12.3158 78.9959 16.0576 78.9852H16.0795C19.9823 78.9852 23.0474 82.0944 23.0353 86.048C23.024 89.8356 19.8947 92.944 16.081 92.957H16.0584ZM16.1415 76.1685H16.0735C10.7832 76.206 6.43783 80.6481 6.47484 85.983C6.51185 91.4112 10.8157 95.7278 16.1815 95.7278H16.2155C21.5345 95.7094 25.7809 91.3729 25.7945 85.9454C25.8081 80.5746 21.4506 76.1685 16.1415 76.1685ZM16.0584 93.349H16.0826C20.1175 93.3352 23.41 90.0607 23.422 86.0496C23.4281 84.0345 22.6758 82.1564 21.3034 80.7607C19.9279 79.3626 18.0728 78.5932 16.0795 78.5932H16.0569C12.1096 78.6047 8.89641 81.8976 8.89415 85.9332C8.89263 87.9139 9.63587 89.7758 10.9871 91.1754C12.3399 92.5773 14.1406 93.349 16.0584 93.349ZM16.1422 76.5605C18.6136 76.5605 20.9438 77.545 22.7037 79.3335C24.4538 81.1121 25.4146 83.4595 25.4078 85.9447C25.4017 88.4659 24.447 90.8255 22.7203 92.5887C20.9937 94.352 18.6831 95.3274 16.214 95.3358H16.1815C13.6889 95.3358 11.352 94.3688 9.60188 92.6125C7.8518 90.8561 6.87894 88.5003 6.86157 85.9807C6.8442 83.5054 7.79968 81.1557 9.55128 79.3657C11.3029 77.5741 13.6202 76.5781 16.0765 76.5605H16.1422Z" fill="white"/>
<path d="M57.99 44.3923V44.3402H44.6872C43.8616 44.3402 43.348 43.9092 43.314 43.1864C43.2823 42.5035 43.7431 42.0227 44.5173 41.9308C44.6351 41.9163 44.7643 41.9102 44.9357 41.9102C45.006 41.9102 45.0762 41.9109 45.1465 41.9125C45.2182 41.9132 45.29 41.914 45.3617 41.914L70.5193 41.9132C72.1145 41.9239 72.32 42.5808 72.3207 43.1512C72.3215 43.5593 72.1833 43.8571 71.8985 44.0631C71.5964 44.2805 71.1334 44.3915 70.5208 44.3915C68.7057 44.3923 66.8899 44.3923 65.0749 44.3923H57.99Z" fill="black"/>
<path d="M44.9347 41.7139C44.7867 41.7139 44.6394 41.7185 44.4936 41.7353C43.6114 41.8402 43.0827 42.4129 43.1189 43.1961C43.1575 44.023 43.7579 44.5359 44.6862 44.5359H57.7949V44.588H64.8639C66.7485 44.588 68.6338 44.588 70.5191 44.5872C71.8333 44.5865 72.5139 44.0927 72.5124 43.1509C72.5116 42.1886 71.8681 41.7261 70.5191 41.7177C70.4934 41.7177 70.4684 41.7169 70.4435 41.7169C70.4042 41.7169 70.365 41.7177 70.3257 41.7177H45.36C45.218 41.7177 45.076 41.7139 44.9347 41.7139ZM44.9347 42.1059C45.0035 42.1059 45.073 42.1066 45.1425 42.1082C45.215 42.1089 45.2875 42.1097 45.36 42.1097H70.3854L70.4435 42.1089L70.516 42.1097C72.1241 42.1196 72.1256 42.8164 72.1256 43.1517C72.1264 43.4955 72.0176 43.7343 71.785 43.9028C71.5199 44.0942 71.0825 44.1952 70.5191 44.1952C68.6338 44.196 66.7485 44.196 64.8639 44.196H58.1816V44.1439H44.6862C43.9641 44.1439 43.5344 43.7918 43.5057 43.177C43.4785 42.5982 43.8644 42.2046 44.5389 42.125C44.6485 42.112 44.7708 42.1059 44.9347 42.1059Z" fill="white"/>
<path d="M44.785 27.5985C44.6695 27.5985 44.5176 27.5954 44.3711 27.5694C43.6845 27.4492 43.322 27.0281 43.3242 26.3528C43.3265 25.6944 43.6649 25.2978 44.3031 25.2067C44.6544 25.1569 45.0214 25.15 45.3341 25.15C51.132 25.1477 56.9306 25.1477 62.7292 25.1477L70.497 25.147C70.5393 25.147 70.5808 25.1477 70.6231 25.1477C71.7977 25.1676 72.3203 25.5489 72.3173 26.3842C72.3158 26.6836 72.312 27.5924 70.5937 27.5931C68.6631 27.5947 66.7325 27.5947 64.8018 27.5947C64.8018 27.5947 47.7905 27.5939 45.2057 27.5931C45.1332 27.5931 45.0622 27.5947 44.9912 27.5962C44.9225 27.5977 44.8538 27.5985 44.785 27.5985Z" fill="black"/>
<path d="M70.4978 24.9507C70.4441 24.9507 70.3905 24.9514 70.3361 24.9514H62.381C56.6987 24.9514 51.0165 24.9514 45.3342 24.9537C44.9814 24.9537 44.6249 24.9629 44.2759 25.0127C43.5229 25.1199 43.1331 25.6191 43.1309 26.3518C43.1279 27.1327 43.5697 27.6273 44.3386 27.7628C44.4844 27.7881 44.634 27.7942 44.785 27.7942C44.9248 27.7942 45.0645 27.7888 45.2035 27.7888H45.2057C47.7535 27.7896 50.3012 27.7904 52.8496 27.7904H64.8404C66.7581 27.7904 68.6759 27.7904 70.5944 27.7888C71.8596 27.7881 72.5069 27.308 72.5107 26.3847C72.5145 25.4284 71.9162 24.9729 70.6262 24.9522C70.5831 24.9514 70.5408 24.9507 70.4978 24.9507ZM70.4978 25.3427C70.5385 25.3427 70.5793 25.3434 70.6194 25.3434C71.945 25.3657 72.1262 25.8564 72.124 26.3832C72.1225 26.6603 72.1194 27.3961 70.5937 27.3968C68.6759 27.3984 66.7581 27.3984 64.8404 27.3984H52.8496C50.3012 27.3984 47.7535 27.3976 45.2035 27.3968C45.1317 27.3968 45.06 27.3984 44.9875 27.3999C44.9202 27.4014 44.8523 27.4022 44.785 27.4022C44.6249 27.4022 44.5071 27.3945 44.4044 27.3762C43.8144 27.2728 43.5153 26.9283 43.5176 26.3525C43.5199 25.7898 43.7857 25.4782 44.3303 25.4009C44.6695 25.3526 45.0282 25.3457 45.3342 25.3457C51.0165 25.3434 56.6987 25.3434 62.381 25.3434H70.4184L70.4978 25.3427Z" fill="white"/>
<path d="M44.7337 35.9802C44.5418 35.9802 44.3077 35.9679 44.1936 35.8722C43.6959 35.4557 43.3764 34.9994 43.3809 34.71C43.3839 34.5201 43.5357 34.1703 44.2412 33.5861C44.3417 33.5026 44.5569 33.4934 44.7103 33.4934C44.7828 33.4934 44.8576 33.4957 44.9301 33.498C45.0033 33.5003 45.0759 33.5026 45.1446 33.5026C49.3887 33.4996 53.6322 33.498 57.8756 33.498C62.0835 33.498 66.2899 33.4996 70.4978 33.5026C70.5703 33.5026 70.6443 33.5003 70.7206 33.4973C70.7946 33.495 70.8709 33.4927 70.9464 33.4927C71.096 33.4927 71.3052 33.5019 71.4019 33.583C72.0983 34.1695 72.2479 34.5232 72.2509 34.7169C72.2547 35.0063 71.9367 35.4596 71.4404 35.8715C71.3249 35.9679 71.0892 35.9802 70.8966 35.9802C70.8218 35.9802 70.7455 35.9779 70.6707 35.9764C70.5952 35.9741 70.5219 35.9718 70.4517 35.9718C68.0309 35.9771 65.6176 35.9779 63.2036 35.9779H52.4297C50.0157 35.9779 47.6032 35.9771 45.1892 35.9718H45.1884C45.1106 35.9718 45.0366 35.9741 44.961 35.9764C44.8863 35.9779 44.8092 35.9802 44.7337 35.9802Z" fill="black"/>
<path d="M70.9465 33.2969C70.7954 33.2969 70.6398 33.3061 70.5001 33.3061H70.4986C66.2884 33.3038 62.0797 33.3022 57.8695 33.3022C53.6284 33.3022 49.3873 33.3038 45.1461 33.3068H45.1439C45.0079 33.3068 44.8568 33.2976 44.7095 33.2976C44.4784 33.2976 44.2571 33.3198 44.1189 33.4339C43.714 33.77 43.1944 34.2692 43.1876 34.7071C43.1808 35.1512 43.6687 35.6879 44.0698 36.024C44.2239 36.1526 44.4746 36.1764 44.7337 36.1764C44.8863 36.1764 45.0411 36.1687 45.1816 36.1687H45.1884C47.6047 36.1733 50.0202 36.1741 52.4365 36.1741C54.2296 36.1741 56.0235 36.1733 57.8167 36.1733H57.8265C59.6159 36.1733 61.406 36.1741 63.1961 36.1741C65.6124 36.1741 68.0286 36.1733 70.4442 36.1687H70.4517C70.5915 36.1687 70.7455 36.1764 70.8966 36.1764C71.1564 36.1764 71.4072 36.1526 71.5628 36.0233C71.9631 35.6902 72.4503 35.1573 72.4443 34.7148C72.4375 34.2738 71.9269 33.7708 71.525 33.4324C71.3906 33.3191 71.1738 33.2969 70.9465 33.2969ZM70.9465 33.6889C71.207 33.6889 71.269 33.7264 71.278 33.734C71.9971 34.3389 72.056 34.6421 72.0575 34.7202C72.0606 34.9414 71.7494 35.3618 71.3173 35.7208C71.2947 35.74 71.207 35.7844 70.8966 35.7844C70.8226 35.7844 70.7486 35.7821 70.6753 35.7806C70.599 35.7783 70.5235 35.7767 70.4442 35.7767H70.4434C67.8632 35.7813 65.3321 35.7821 63.1961 35.7821H60.5109L57.8167 35.7813L55.127 35.7821H52.4365C50.3027 35.7821 47.7724 35.7813 45.1816 35.7767C45.1099 35.7767 45.0336 35.7783 44.9565 35.7806C44.8833 35.7828 44.8077 35.7844 44.7337 35.7844C44.4248 35.7844 44.3387 35.74 44.316 35.7216C43.8764 35.3533 43.5713 34.9384 43.5743 34.7133C43.5758 34.6367 43.6362 34.3404 44.3636 33.7379C44.3734 33.7295 44.4361 33.6896 44.7095 33.6896C44.7805 33.6896 44.8531 33.6919 44.9241 33.6942C44.9996 33.6965 45.0736 33.6988 45.1461 33.6988C49.3873 33.6958 53.6292 33.6942 57.8695 33.6942C62.0797 33.6942 66.2884 33.6958 70.5001 33.6981C70.5726 33.6981 70.6489 33.6958 70.7267 33.6935C70.7992 33.6912 70.8732 33.6889 70.9465 33.6889Z" fill="white"/>
<path d="M45.1994 52.7419C44.9305 52.7419 44.6435 52.7358 44.361 52.696C43.6812 52.6003 43.3232 52.1838 43.3262 51.4909C43.33 50.6472 43.9153 50.3869 44.4063 50.3172C44.5581 50.2958 44.713 50.2935 44.8316 50.2935C44.8995 50.2935 44.9675 50.2942 45.0355 50.295C45.1057 50.2965 45.1752 50.2973 45.2447 50.2973L63.1466 50.2965C65.5788 50.2965 68.0109 50.2965 70.4431 50.2981C70.5103 50.2981 70.7709 50.295 70.8351 50.295C70.9967 50.295 71.187 50.2996 71.3653 50.3371C71.9922 50.4688 72.3193 50.8838 72.311 51.5368C72.3027 52.193 71.9711 52.5804 71.3245 52.6876C71.0405 52.735 70.7437 52.7411 70.4922 52.7411C66.1203 52.7427 61.7478 52.7434 57.376 52.7434C53.3169 52.7434 49.2585 52.7427 45.1994 52.7419Z" fill="black"/>
<path d="M44.8296 50.0977C44.6778 50.0977 44.5267 50.1022 44.3779 50.1237C43.6045 50.2332 43.1347 50.6994 43.1309 51.4896C43.1279 52.2628 43.5372 52.7789 44.3318 52.8906C44.6174 52.9305 44.9089 52.9381 45.1974 52.9381C49.252 52.9389 53.3058 52.9396 57.3597 52.9396C61.736 52.9396 66.1139 52.9389 70.4902 52.9373C70.7787 52.9373 71.071 52.9282 71.3543 52.8807C72.0953 52.7582 72.4926 52.2858 72.5024 51.5393C72.5122 50.7974 72.1308 50.2982 71.4026 50.1451C71.2176 50.1068 71.0257 50.0992 70.8331 50.0992C70.7032 50.0992 70.5733 50.1022 70.4449 50.1022H70.4411C67.9372 50.1007 65.4341 50.1007 62.9309 50.1007H53.0641C50.4575 50.1007 47.8509 50.1007 45.245 50.1015H45.2435C45.106 50.1015 44.9671 50.0977 44.8296 50.0977ZM44.8296 50.4897C44.8968 50.4897 44.964 50.4904 45.0313 50.4912C45.1023 50.4927 45.1725 50.4935 45.245 50.4935C47.8509 50.4927 50.4575 50.4927 53.0641 50.4927H62.9309C65.4341 50.4927 67.9372 50.4927 70.4449 50.4942C70.5106 50.4942 70.5771 50.4935 70.6435 50.4927C70.7062 50.492 70.7697 50.4912 70.8331 50.4912C70.9849 50.4912 71.1624 50.4958 71.3241 50.5295C71.8641 50.6428 72.1232 50.9712 72.1157 51.534C72.1089 52.0967 71.8468 52.4022 71.2916 52.4941C71.0212 52.5392 70.7342 52.5453 70.4902 52.5453C66.1139 52.5469 61.736 52.5476 57.3597 52.5476C53.3058 52.5476 49.252 52.5469 45.1982 52.5461C44.9353 52.5461 44.6551 52.5408 44.3855 52.5025C43.7993 52.4198 43.5153 52.089 43.5176 51.4919C43.5206 50.9192 43.819 50.5984 44.4315 50.5119C44.5713 50.492 44.7178 50.4897 44.8296 50.4897Z" fill="white"/>
<path d="M23.2284 40.1598C18.6723 40.2395 14.2831 44.1702 14.197 48.2479L14.1924 48.4485H32.5536L32.5423 48.241C32.2983 44.0109 27.928 40.1583 23.3726 40.1583C23.3243 40.1583 23.2767 40.1591 23.2284 40.1598ZM23.3145 50.9153L17.466 50.9176C16.0739 50.9176 14.6826 50.9168 13.2906 50.9145C12.5723 50.913 12.1659 50.8096 11.9325 50.5692C11.6999 50.3288 11.6055 49.9169 11.616 49.1911C11.6961 43.8318 15.9546 38.9035 21.3114 37.9717C21.9995 37.8515 22.6981 37.791 23.3855 37.791C29.7257 37.791 34.8921 42.8518 35.1489 49.3129C35.1715 49.8771 35.0658 50.2752 34.8264 50.5287C34.5847 50.7844 34.1926 50.9092 33.6277 50.9115C32.12 50.9161 30.6124 50.9176 29.1048 50.9176L23.3145 50.9153Z" fill="black"/>
<path d="M14.3904 48.2527C14.4742 44.2684 18.809 40.4334 23.2314 40.356C23.279 40.3553 23.3251 40.3545 23.3719 40.3545C27.8374 40.3545 32.108 44.0708 32.3489 48.2527H14.3904ZM23.3855 37.5952C22.6936 37.5952 21.9889 37.6549 21.2789 37.7782C15.7998 38.7322 11.5043 43.7041 11.4227 49.1883C11.4008 50.6751 11.8117 51.1077 13.2906 51.1107C14.6744 51.113 16.0574 51.1138 17.4411 51.1138C19.3989 51.1138 21.3575 51.1123 23.3145 51.1115H23.5441C25.3992 51.1115 27.2543 51.1138 29.1101 51.1138C30.6162 51.1138 32.1223 51.1123 33.6284 51.1077C34.8649 51.1031 35.3914 50.5273 35.3423 49.3054C35.0764 42.6116 29.7325 37.5944 23.3855 37.5952ZM13.9953 48.6447H32.7591L32.7349 48.2297C32.614 46.1357 31.5075 44.0257 29.6977 42.4385C27.9031 40.8652 25.5971 39.9625 23.3719 39.9625C23.3228 39.9625 23.2745 39.9633 23.2254 39.964C18.5733 40.0452 14.0913 44.0693 14.0036 48.2442L13.9953 48.6447ZM23.387 37.9872C29.6215 37.9872 34.7033 42.9653 34.9563 49.3207C34.9767 49.8291 34.8883 50.1797 34.6867 50.3933C34.4835 50.6085 34.1368 50.7134 33.6269 50.7157C32.3165 50.7203 30.8813 50.7218 29.1101 50.7218C28.1826 50.7218 27.255 50.7218 26.3275 50.721C25.4 50.7203 24.4717 50.7195 23.5441 50.7195H23.3145L20.5953 50.721C19.5439 50.721 18.4925 50.7218 17.4411 50.7218C16.0574 50.7218 14.6744 50.721 13.2914 50.7187C12.638 50.7172 12.2611 50.6292 12.07 50.4316C11.8804 50.2356 11.7996 49.8543 11.8094 49.1944C11.8472 46.6349 12.845 44.0953 14.6177 42.0427C16.3927 39.9878 18.7818 38.6104 21.3446 38.1648C22.0214 38.0469 22.708 37.9872 23.3863 37.9872H23.387Z" fill="white"/>
<path d="M23.3038 29.3945C22.7253 29.4006 22.1761 29.6448 21.7569 30.082C21.3256 30.5314 21.0832 31.1454 21.093 31.7671C21.1126 33.0472 22.1361 34.0494 23.4217 34.0494L23.4874 34.0487C24.6921 34.0173 25.668 32.9868 25.662 31.7526C25.6567 30.474 24.5879 29.3945 23.3288 29.3945H23.3038ZM23.3295 36.4795C22.0968 36.478 20.9397 35.988 20.0718 35.0991C19.176 34.1827 18.6888 32.9523 18.6994 31.6347C18.719 29.1701 20.8332 27.0088 23.2238 27.0088H23.2495C25.8946 27.0256 28.0488 29.1357 28.0518 31.7128C28.0526 32.9845 27.5654 34.1796 26.6794 35.0784C25.7889 35.9819 24.6022 36.4795 23.3371 36.4795H23.3295Z" fill="black"/>
<path d="M23.4217 33.8536C22.2373 33.8536 21.3045 32.9471 21.2864 31.7643C21.2682 30.5967 22.1912 29.6029 23.3061 29.5907H23.3288C24.4753 29.5907 25.4633 30.586 25.4686 31.7535C25.4739 32.8736 24.5743 33.8245 23.4829 33.8529C23.4625 33.8536 23.4421 33.8536 23.4217 33.8536ZM23.2238 26.813C20.7116 26.813 18.5264 29.0425 18.506 31.6333C18.4841 34.4248 20.633 36.6719 23.3295 36.6757H23.3371C26.0532 36.6757 28.2474 34.4577 28.2452 31.713C28.2421 29.0195 26.0109 26.8306 23.2502 26.813H23.2238ZM23.4217 34.2456C23.4451 34.2456 23.4685 34.2456 23.4927 34.2449C24.8016 34.2104 25.8621 33.0926 25.8553 31.7512C25.8493 30.3678 24.6921 29.1987 23.3288 29.1987H23.3016C22.6716 29.2056 22.0734 29.4712 21.618 29.9451C21.1512 30.4321 20.8891 31.0966 20.8996 31.7704C20.9208 33.1585 22.0289 34.2456 23.4217 34.2456ZM23.2238 27.205H23.2479C25.7873 27.2211 27.8554 29.2431 27.8584 31.713C27.8592 32.9326 27.3924 34.0787 26.5427 34.9408C25.6892 35.8067 24.5509 36.2837 23.3303 36.2837C22.149 36.2822 21.0409 35.8129 20.2093 34.9615C19.3505 34.0826 18.8829 32.902 18.8928 31.6364C18.9116 29.276 20.9351 27.205 23.2238 27.205Z" fill="white"/>
<path d="M15.1892 89.3348C14.9309 89.3348 14.6605 89.2307 14.3871 89.0247C13.6461 88.4689 12.8878 87.851 12.0682 87.136C11.5259 86.6628 11.4587 86.0886 11.8749 85.4753C12.0773 85.1775 12.3832 85.0137 12.7359 85.0137C13.0116 85.0137 13.2949 85.1124 13.5555 85.3008C13.8621 85.5228 14.1627 85.764 14.5102 86.0442C14.6847 86.1843 14.872 86.3351 15.0797 86.499L15.2179 86.6092L15.3388 86.4791C15.6568 86.1384 15.9717 85.7976 16.2844 85.4585C16.996 84.6883 17.7316 83.8928 18.4673 83.131C18.8314 82.7535 19.2159 82.5537 19.5784 82.5537C19.87 82.5537 20.1389 82.6808 20.376 82.9312C21.0392 83.6294 20.6298 84.3361 20.1698 84.8062C19.2287 85.7663 18.2581 86.7302 17.3192 87.6612C16.8955 88.0815 16.4725 88.5018 16.0495 88.9229C15.7754 89.1962 15.4861 89.3348 15.1892 89.3348Z" fill="black"/>
<path d="M19.578 82.3579C19.1724 82.3579 18.7404 82.5677 18.3287 82.9941C17.2743 84.0859 16.2539 85.2114 15.1979 86.3445C14.571 85.8491 14.1322 85.4771 13.6669 85.1409C13.367 84.925 13.043 84.8179 12.7363 84.8179C12.3337 84.8179 11.9614 85.0016 11.7159 85.3645C11.2491 86.0513 11.311 86.7342 11.9417 87.2854C12.697 87.9431 13.4712 88.5816 14.2711 89.1827C14.5755 89.4108 14.8845 89.5318 15.1889 89.5318C15.5303 89.5318 15.8664 89.381 16.1851 89.0625C17.5598 87.6912 18.9473 86.3323 20.3062 84.9442C21.0509 84.1839 21.1 83.4114 20.5154 82.7951C20.2397 82.5057 19.9179 82.3579 19.578 82.3579ZM19.578 82.7499C19.8152 82.7499 20.0365 82.8571 20.2367 83.0669C20.6823 83.5362 20.6128 84.0744 20.032 84.6678C19.0916 85.6286 18.1203 86.5926 17.1806 87.5243C16.7577 87.9439 16.3354 88.3627 15.914 88.7838C15.6768 89.0196 15.4336 89.1398 15.1889 89.1398C14.9728 89.1398 14.7417 89.0479 14.5015 88.868C13.7651 88.3144 13.0105 87.6997 12.194 86.9876C11.7242 86.578 11.6721 86.1202 12.0339 85.5865C12.1993 85.3438 12.4485 85.2099 12.7363 85.2099C12.9712 85.2099 13.2152 85.2964 13.4425 85.4602C13.7454 85.6792 14.0445 85.9196 14.3897 86.1975C14.5642 86.3384 14.7523 86.4892 14.9607 86.6538L15.238 86.8735L15.4797 86.614C15.7976 86.2725 16.1126 85.9311 16.4261 85.5919C17.1368 84.8232 17.871 84.0277 18.6052 83.2682C18.9322 82.9291 19.2684 82.7499 19.578 82.7499Z" fill="white"/>
</svg>
