<svg width="112" height="114" viewBox="0 0 112 114" fill="none" xmlns="http://www.w3.org/2000/svg">
<path d="M107.636 3.68243C106.979 3.68243 106.348 3.78568 105.737 3.88459C105.449 3.93145 105.151 3.98004 104.852 4.01735C103.801 4.14923 102.734 4.29934 101.68 4.4642C99.6076 4.78784 97.4985 5.18002 95.4098 5.63208C95.2925 5.65724 83.544 8.36436 83.134 9.0073C83.0963 9.0663 83.0835 9.13485 83.0972 9.19993C85.0625 18.438 93.2947 26.8205 102.673 29.1311L102.699 29.1372L102.728 29.1381C102.958 29.1381 103.062 29.1381 104.288 24.5281C104.894 22.2479 105.488 19.8792 105.583 19.4731C107.038 13.2971 107.836 8.58909 108.175 4.2065C108.181 4.12841 108.193 3.96529 108.089 3.836C107.966 3.68503 107.78 3.68329 107.69 3.68243H107.636ZM33.1386 48.5643C25.9191 49.7434 20.4074 50.6805 15.2645 51.602C12.337 52.126 9.30935 52.6683 6.29539 52.8592C6.17212 52.867 6.03945 52.8714 5.90249 52.8757C5.20314 52.8991 4.41134 52.9252 3.8712 53.3816C3.37387 53.8015 3.26601 54.4887 3.26259 54.9902C3.25745 55.6826 3.26516 56.3872 3.27201 57.0683C3.27714 57.6028 3.28228 58.1372 3.28228 58.6717C3.28228 59.5533 3.29084 60.4357 3.29854 61.3173C3.3071 62.2005 3.31566 63.0847 3.31566 63.968C3.31566 64.0287 3.31566 64.1554 3.40383 64.2578C3.492 64.3567 3.60841 64.3758 3.66405 64.3845C3.96622 64.4339 4.25983 64.4825 4.55343 64.532C6.91342 64.9285 9.27255 65.3285 11.6325 65.7285L15.5119 66.3853C15.7028 66.4174 16.2806 66.5207 17.0767 66.6629C21.6939 67.489 26.0313 68.2534 26.5038 68.2534C26.6947 68.2534 26.7426 68.1198 26.7529 68.0781C28.5119 60.9416 30.6768 54.6614 33.3714 48.8792L33.5495 48.4975L33.1386 48.5643ZM79.7288 10.0147C79.0123 10.3218 78.295 10.6229 77.5785 10.924C76.0557 11.5635 74.4807 12.2246 72.9562 12.9283C60.5194 18.6714 50.4879 26.9437 43.1392 37.5145C37.8346 45.1448 33.8337 53.8727 30.907 64.1953C30.5912 65.3103 30.3078 66.453 30.033 67.5584C29.8028 68.4885 29.564 69.4499 29.3072 70.3878C29.136 71.0152 29.243 71.4343 29.6881 71.882C31.1476 73.3501 32.6019 74.8225 34.0562 76.2958C36.1817 78.4476 38.3782 80.6732 40.5558 82.845C40.8092 83.0983 41.2903 83.2823 41.6986 83.2823C41.8124 83.2823 41.9169 83.2675 42.0076 83.2389C43.9473 82.6211 45.9126 81.9712 47.813 81.3413C49.9307 80.6402 52.1212 79.9148 54.2852 79.2337C55.7292 78.7782 56.5441 78.0181 57.098 76.6116C57.5628 75.4307 57.7254 74.3835 57.0081 73.1115C56.5998 72.3861 56.2531 71.6017 55.9175 70.8434C55.7147 70.3852 55.5049 69.9106 55.2824 69.4508C54.8792 68.6178 54.9768 67.961 55.5991 67.3224C56.426 66.4729 57.2512 65.5957 58.049 64.748C58.4718 64.2977 58.8956 63.8474 59.3201 63.3997C59.7096 62.9892 60.1017 62.7897 60.5185 62.7897C60.7882 62.7897 61.0724 62.8704 61.3865 63.0352C61.7255 63.2131 62.0739 63.4135 62.4428 63.6261C63.7747 64.3931 65.283 65.2625 66.7853 65.2625C67.1362 65.2625 67.4786 65.2148 67.8022 65.1202C69.5373 64.6127 70.7725 63.3962 71.192 61.7823C71.3905 61.0144 71.691 60.2526 71.982 59.5151C72.1207 59.1628 72.2645 58.7975 72.3972 58.4349C72.6771 57.6635 73.1787 57.3043 73.9748 57.3043H74.0056C74.9275 57.3156 75.852 57.3208 76.7525 57.3208C77.665 57.3208 78.5801 57.3147 79.472 57.3043H79.5054C80.3006 57.3043 80.7928 57.6479 81.1018 58.4192C81.4348 59.2496 81.7841 60.0687 82.153 60.9372C82.3139 61.3146 82.4783 61.7016 82.6469 62.0999L82.7719 62.3966L83.0004 62.1728C91.3182 54.054 97.4257 44.2797 101.672 32.2903L101.75 32.0708L101.529 32.0031C96.0373 30.3224 91.4508 27.6422 87.8976 24.0353C84.3401 20.4232 81.6908 15.7534 80.0241 10.1552L79.9531 9.91835L79.7288 10.0147ZM43.4011 86.1299L47.4552 109.923H58.2792L58.3083 109.735C58.3494 109.465 58.3939 109.196 58.4385 108.927C58.5549 108.227 58.6747 107.502 58.7372 106.781C58.7697 106.4 58.5061 105.97 58.2707 105.717C57.704 105.108 57.1099 104.509 56.5356 103.93C56.2137 103.605 55.891 103.28 55.5717 102.951C54.7183 102.074 54.6524 101.702 55.16 100.608C55.3569 100.183 55.5563 99.7584 55.7558 99.3332C56.3147 98.1419 56.8925 96.909 57.4172 95.6752C57.6056 95.2326 57.5208 94.6582 57.4583 94.2392C57.0535 91.5008 54.4272 90.7676 52.1109 90.1203C51.6341 89.9876 51.1839 89.8618 50.7644 89.7221C49.7073 89.3698 49.2579 88.8336 49.263 87.9286C49.2664 87.2449 49.2656 86.562 49.2647 85.848L49.2639 84.5725L43.4011 86.1299ZM67.3734 101.242C68.2285 101.242 69.1187 101.652 69.9045 102.012L69.9747 102.045C70.1879 102.142 70.4027 102.233 70.6167 102.323C71.5669 102.725 72.4648 103.104 72.9827 104.027C73.3251 104.638 73.5254 105.338 73.7189 106.015C73.813 106.347 73.9115 106.689 74.0253 107.021C74.0938 107.22 74.1563 107.465 74.2222 107.724C74.4019 108.432 74.6065 109.235 75.073 109.674C75.561 110.132 76.2706 110.229 76.779 110.229C77.13 110.229 77.4938 110.183 77.8311 110.098C78.8788 109.835 79.246 109.053 79.4866 108.248C79.8136 107.153 80.1679 106.049 80.5394 104.968C80.6807 104.557 80.8562 104.044 81.1429 103.639C81.6882 102.868 82.5742 102.514 83.431 102.171C83.621 102.095 83.8111 102.02 83.9968 101.94L84.2699 101.82C84.9641 101.516 85.7499 101.172 86.4886 101.172C86.825 101.172 87.1229 101.241 87.3985 101.385C88.2794 101.844 89.1919 102.27 90.0744 102.682C90.7318 102.989 91.4106 103.305 92.0689 103.633C92.2906 103.743 92.4729 103.794 92.6424 103.794C92.8992 103.794 93.1294 103.681 93.3905 103.428L93.4256 103.393C95.4774 101.4 95.4929 101.312 94.2619 98.6513C94.1087 98.3207 93.9581 97.9884 93.8074 97.6569C93.536 97.0582 93.2544 96.4387 92.9625 95.8357C92.6167 95.1216 92.627 94.4674 92.9951 93.716C93.2424 93.2118 93.4624 92.686 93.6747 92.1785C93.9512 91.5173 94.238 90.8327 94.5829 90.2019C94.868 89.6804 95.3824 89.1972 95.8626 88.9993C96.9909 88.4275 98.2278 88.0683 99.4236 87.7212C99.7326 87.631 100.04 87.5416 100.346 87.4497C100.562 87.3837 100.833 87.3013 101.04 87.1069C101.8 86.3911 101.569 84.3712 101.13 83.6423C100.714 82.9525 99.8096 82.6697 99.0821 82.4415C98.9314 82.3946 98.7876 82.3495 98.6558 82.3035C98.3784 82.2064 98.0908 82.1222 97.7869 82.0328C96.7691 81.7352 95.7171 81.4281 95.1179 80.6289C94.7781 80.1751 94.5504 79.6302 94.3304 79.1036L93.1996 76.4008C92.8983 75.6806 92.6783 75.0255 93.0387 74.3036C93.4068 73.5678 93.7543 72.8069 94.089 72.072C94.4126 71.364 94.7464 70.6317 95.0974 69.9254C95.421 69.2746 95.3294 68.7965 94.7918 68.328C94.5787 68.1415 94.3698 67.8968 94.1686 67.659C93.7586 67.1775 93.3357 66.6794 92.7982 66.5823C92.728 66.5701 92.6544 66.5632 92.5782 66.5632C91.9388 66.5632 91.2291 67.0187 90.6025 67.4196C90.5118 67.4786 90.4228 67.535 90.3355 67.5896C89.3194 68.2256 88.0919 68.5623 86.7874 68.5623C84.8015 68.5623 82.8087 67.771 81.4562 66.446C80.34 65.3519 79.7999 63.6487 79.3821 62.1372C79.2657 61.7172 79.0509 61.1212 78.5381 60.7993C78.206 60.5901 77.6059 60.4661 76.9348 60.4661C76.2937 60.4661 75.7373 60.5806 75.4077 60.7802C74.7264 61.1932 74.4422 62.0999 74.2136 62.8287C74.1665 62.9788 74.122 63.122 74.0758 63.2539C74.0022 63.4647 73.9277 63.6747 73.8532 63.8847C73.6281 64.5172 73.3961 65.1714 73.1941 65.8265C72.993 66.4799 72.5812 66.8799 71.8185 67.1653C70.5114 67.6538 69.1119 68.1944 67.7329 68.8347C67.393 68.9926 67.1268 69.0629 66.8709 69.0629C66.6278 69.0629 66.3915 68.9987 66.1262 68.8599C64.9894 68.2681 63.8175 67.7042 62.6833 67.1593C62.2502 66.9501 61.8171 66.7419 61.3848 66.5319C61.33 66.505 61.2787 66.4929 61.2008 66.4738C61.1571 66.4625 61.0997 66.4486 61.0219 66.4269L60.8969 66.3931L60.807 66.4877C60.6272 66.6777 60.4449 66.8643 60.2634 67.0499C59.7961 67.5298 59.3133 68.0252 58.8844 68.5545C58.6525 68.8408 58.5728 69.4161 58.7175 69.7605C59.3732 71.3197 60.0803 72.8225 60.6846 74.0858C61.0381 74.8242 61.0304 75.508 60.6606 76.3036C60.1059 77.4949 59.642 78.7322 59.1755 79.9999C58.899 80.7539 58.459 81.1894 57.7494 81.4133C56.9533 81.6641 56.1546 81.9478 55.3817 82.222C54.7037 82.4623 54.0027 82.7105 53.3085 82.9352C52.7212 83.1261 52.4893 83.4567 52.4799 84.1161L52.479 84.1655C52.4379 87.0141 52.4876 87.087 55.1377 88.064C55.463 88.1837 55.7866 88.3069 56.1101 88.4319C56.7616 88.6818 57.4352 88.9403 58.1132 89.1581C58.7577 89.3646 59.1232 89.7559 59.4169 90.5533C59.8491 91.7247 60.3473 92.8283 60.8969 93.834C61.2692 94.5134 61.2975 95.0149 60.9987 95.6214C60.5579 96.5142 60.1359 97.4339 59.7267 98.3233C59.3937 99.0486 59.0488 99.7983 58.697 100.528C58.441 101.058 58.5027 101.436 58.917 101.873L58.9521 101.909C60.0469 103.066 60.5459 103.594 61.2881 103.594C61.8333 103.594 62.4385 103.306 63.5385 102.785C63.8355 102.643 64.13 102.497 64.4253 102.349C65.1178 102.005 65.8343 101.648 66.5627 101.381C66.8178 101.288 67.0832 101.242 67.3734 101.242ZM74.4225 113.049C73.5348 113.049 73.0092 112.668 72.7173 111.816C72.5359 111.285 72.3767 110.727 72.2217 110.187C71.8203 108.782 71.4051 107.33 70.5474 106.099C69.8686 105.124 69.0768 104.65 68.1275 104.65C67.2167 104.65 66.2939 105.074 65.3164 105.521C64.9971 105.668 64.6667 105.819 64.338 105.954L64.1462 106.032C63.2534 106.391 62.0302 106.884 61.9189 108.072C61.8333 108.995 61.6724 109.93 61.5158 110.834L61.4327 111.317C61.1973 112.703 60.7984 113.042 59.3997 113.042C57.4215 113.045 55.4442 113.045 53.4668 113.045C51.3234 113.045 49.1791 113.044 47.0357 113.043C45.4915 113.043 45.0241 112.637 44.7613 111.069C44.4044 108.937 44.0457 106.806 43.6862 104.675C42.8507 99.7168 41.987 94.5897 41.1653 89.5416C40.941 88.162 40.5421 87.0089 39.3266 85.8653C36.7809 83.4697 34.3207 81.0142 32.2509 78.9274C31.4583 78.1292 30.6673 77.3283 29.8764 76.5275L28.6592 75.2954C28.3972 75.0307 28.1233 74.7878 27.858 74.5535C27.2065 73.9765 26.5911 73.4316 26.2067 72.6195C26.1768 72.557 26.1485 72.4945 26.1203 72.4303C25.9765 72.111 25.8275 71.7805 25.5459 71.5358C25.058 71.1106 24.2688 71.0195 23.5728 70.9397C23.3742 70.9163 23.1859 70.8946 23.0241 70.8668L19.946 70.3323C17.9429 69.9835 15.9399 69.6347 13.9369 69.2859C9.88202 68.5779 5.82801 67.869 1.77401 67.1575C0.717711 66.9718 0.286289 66.4573 0.282865 65.3805C0.270881 61.168 0.270025 56.788 0.282009 52.3612C0.285433 51.2879 0.781911 50.7048 1.84506 50.5252L2.21913 50.4619C12.6803 48.6927 23.4984 46.8636 34.141 45.0823C34.7881 44.9739 35.205 44.6736 35.5362 44.0784C36.5386 42.2754 37.4503 40.6555 38.4569 39.0815C44.8863 29.0313 53.4788 20.6557 63.9947 14.1873C70.6296 10.1058 77.7472 6.88152 85.149 4.60563C88.8486 3.46725 92.6989 2.54231 96.5911 1.85425C97.626 1.67117 98.6857 1.52367 99.7095 1.38137C100.548 1.26424 101.414 1.14363 102.264 1.00394C102.661 0.938861 103.057 0.870316 103.453 0.800902C104.991 0.533661 106.582 0.256875 108.168 0.224771C108.269 0.223036 108.371 0.222168 108.472 0.222168H108.559C109.085 0.224771 110.374 0.323685 110.965 1.17573C111.479 1.91586 111.56 3.12538 111.572 4.21084C111.597 6.60386 111.215 9.01251 110.798 11.258C110.065 15.2137 108.993 19.1573 107.956 22.9715L107.751 23.729C104.25 36.6252 99.195 47.2871 92.2966 56.3247C90.8448 58.2266 89.2441 60.073 87.6947 61.8578C86.9808 62.6804 86.243 63.5315 85.5248 64.381L85.3792 64.5536L85.553 64.6977C86.0212 65.0855 86.4929 65.2738 86.9945 65.2738C87.3789 65.2738 87.7863 65.1584 88.2049 64.9302C88.9625 64.5181 89.7714 64.1623 90.5529 63.8179C91.123 63.5671 91.7119 63.3085 92.2803 63.0274C92.5953 62.873 92.8795 62.7975 93.1474 62.7975C93.5737 62.7975 93.9623 62.9866 94.3698 63.3936C95.5673 64.5901 96.8051 65.7857 98.0018 66.9423L98.3767 67.3042C99.035 67.9402 99.1514 68.59 98.7551 69.4109C97.9068 71.1696 97.2117 72.6516 96.5723 74.1709C96.336 74.7323 96.5175 75.4394 96.5791 75.6433C96.7828 76.3201 97.0773 77.0333 97.4788 77.822C97.6286 78.117 97.947 78.517 98.3476 78.6732C99.7343 79.2138 101.377 79.8367 103.048 80.3634C103.985 80.6593 104.405 81.2328 104.411 82.2237C104.422 84.0363 104.42 85.8254 104.414 87.9538C104.411 88.8128 104.024 89.336 103.193 89.6015C102.768 89.7377 102.331 89.8583 101.867 89.9859C99.8456 90.5438 97.555 91.1754 96.4327 93.2639C95.4612 95.0739 96.9463 97.6153 98.0309 99.4703C98.3031 99.9371 98.5607 100.379 98.7465 100.75C99.1308 101.52 99.0743 102.12 98.5693 102.639C97.4274 103.812 95.9183 105.357 94.3689 106.894C94.0411 107.219 93.7021 107.377 93.3315 107.377C93.0798 107.377 92.8067 107.302 92.52 107.154C92.0303 106.901 91.5202 106.67 91.028 106.447C90.2901 106.113 89.5266 105.768 88.8306 105.347C88.0123 104.852 87.253 104.611 86.5092 104.611C85.8338 104.611 85.1627 104.82 84.5155 105.229C84.1329 105.471 83.6373 105.862 83.4455 106.347C82.9499 107.601 82.4963 108.894 82.0571 110.144C81.8714 110.672 81.6865 111.199 81.4982 111.724C81.1189 112.779 80.7534 113.038 79.6321 113.042C79.3573 113.043 79.0825 113.044 78.8078 113.044C78.3935 113.044 76.7371 113.041 76.3228 113.041C75.7005 113.041 75.0782 113.042 74.4559 113.048L74.4225 113.049Z" fill="black"/>
<path d="M47.6403 109.701C46.3033 101.852 44.9799 94.0882 43.6514 86.293C45.4781 85.808 47.1892 85.3533 49.0459 84.8605C49.0459 85.946 49.0502 86.9368 49.0442 87.9268C49.0382 89.0513 49.7101 89.6049 50.6962 89.9329C53.1478 90.7494 56.7772 91.1329 57.242 94.2721C57.3062 94.7042 57.3756 95.2127 57.2164 95.5875C56.5102 97.2491 55.7218 98.8751 54.9617 100.513C54.4198 101.683 54.4977 102.164 55.4162 103.108C56.3133 104.03 57.2352 104.927 58.1117 105.869C58.3266 106.1 58.5432 106.475 58.5192 106.762C58.4344 107.746 58.2427 108.72 58.092 109.701H47.6403ZM66.8712 69.285C67.1793 69.285 67.484 69.1948 67.8239 69.0369C69.1524 68.4199 70.522 67.8872 71.8941 67.3735C72.6363 67.0967 73.161 66.6794 73.4033 65.8924C73.6695 65.0291 73.9836 64.1814 74.2824 63.3285C74.5477 62.5701 74.7797 61.4196 75.521 60.9701C75.836 60.7793 76.3847 60.6882 76.9351 60.6882C77.5215 60.6882 78.1104 60.7914 78.4228 60.9875C78.8311 61.2443 79.0409 61.7276 79.171 62.197C79.5973 63.7345 80.1408 65.4655 81.3041 66.6057C82.7319 68.0043 84.776 68.7844 86.7876 68.7844C88.0793 68.7844 89.3573 68.4633 90.4513 67.7787C91.1104 67.3657 91.9151 66.7853 92.5785 66.7853C92.641 66.7853 92.7009 66.7905 92.7608 66.8009C93.4653 66.9284 93.9986 67.9288 94.6491 68.4963C95.1114 68.8989 95.1833 69.2598 94.9025 69.8256C94.1852 71.2685 93.5646 72.7609 92.8438 74.2029C92.4483 74.9951 92.6709 75.7057 92.9979 76.4875C93.3754 77.3882 93.752 78.2897 94.1287 79.1903C94.3572 79.7369 94.5892 80.2905 94.9436 80.7634C95.7713 81.8671 97.3652 82.0857 98.585 82.5135C99.3383 82.7781 100.49 83.0063 100.942 83.7577C101.36 84.451 101.544 86.3295 100.891 86.9438C100.725 87.1 100.5 87.1702 100.282 87.2362C98.7716 87.6952 97.1974 88.0752 95.7799 88.7936C95.2269 89.021 94.6851 89.5572 94.3915 90.0943C93.776 91.2205 93.366 92.4604 92.7993 93.617C92.4098 94.4118 92.385 95.1458 92.7659 95.9337C93.2162 96.8621 93.6296 97.8087 94.0636 98.7458C95.2586 101.327 95.2483 101.315 93.2393 103.267C93.0244 103.475 92.8447 103.572 92.6427 103.572C92.5006 103.572 92.3482 103.524 92.1659 103.434C90.6199 102.665 89.0295 101.986 87.499 101.187C87.1728 101.017 86.833 100.95 86.4889 100.95C85.6038 100.95 84.6887 101.401 83.9115 101.735C82.856 102.189 81.6705 102.511 80.9651 103.509C80.6715 103.924 80.4986 104.413 80.3326 104.895C79.9585 105.983 79.6067 107.08 79.2771 108.183C79.0212 109.042 78.6736 109.658 77.7783 109.883C77.4838 109.957 77.1346 110.006 76.7793 110.006C76.2024 110.006 75.6109 109.876 75.2223 109.511C74.6402 108.963 74.4887 107.692 74.2327 106.948C73.8852 105.94 73.6986 104.855 73.173 103.917C72.4985 102.715 71.2522 102.387 70.0657 101.842C69.2363 101.462 68.3024 101.02 67.3736 101.02C67.0766 101.02 66.7804 101.066 66.4885 101.173C65.4425 101.554 64.4564 102.104 63.4455 102.583C62.3849 103.087 61.7822 103.372 61.2883 103.372C60.6326 103.372 60.167 102.872 59.0756 101.718C58.7272 101.351 58.6775 101.075 58.8941 100.625C59.6782 98.9992 60.3964 97.3393 61.195 95.7202C61.552 94.9975 61.469 94.4196 61.0889 93.7255C60.5205 92.686 60.0334 91.5901 59.6226 90.4752C59.3435 89.7177 58.9626 89.198 58.1794 88.9464C57.1778 88.6245 56.202 88.2193 55.2133 87.8548C52.6436 86.9082 52.659 86.9091 52.6993 84.1195C52.707 83.579 52.8593 83.3143 53.3755 83.1469C54.8632 82.6644 56.3236 82.0961 57.8147 81.625C58.6279 81.369 59.0927 80.864 59.3812 80.0779C59.8374 78.8372 60.3022 77.5938 60.8586 76.3981C61.2473 75.5635 61.2755 74.812 60.8817 73.9895C60.2004 72.5639 59.5318 71.1305 58.9198 69.6737C58.8077 69.4065 58.8736 68.918 59.0533 68.695C59.6388 67.9722 60.3159 67.3258 60.9648 66.6421C61.1702 66.6976 61.2344 66.7054 61.2901 66.7323C62.8711 67.5011 64.4658 68.2447 66.0263 69.0577C66.3267 69.2147 66.5998 69.285 66.8712 69.285ZM26.504 68.0312C25.8458 68.0312 16.4444 66.3176 15.5481 66.1657C11.8956 65.548 8.24305 64.9267 4.58966 64.3124C4.29263 64.2629 3.99559 64.2144 3.69856 64.1658C3.65234 64.158 3.60184 64.1484 3.56931 64.1111C3.53678 64.0738 3.53507 64.0183 3.53507 63.9679C3.53507 62.2022 3.50168 60.4374 3.50168 58.6717C3.50168 57.4448 3.47344 56.2162 3.482 54.9919C3.48542 54.4626 3.6104 53.8908 4.01186 53.5525C4.5965 53.0579 5.59032 53.1256 6.30935 53.0804C9.33188 52.8896 12.321 52.3542 15.3033 51.8206C21.2585 50.7534 27.206 49.759 33.174 48.7838C30.2516 55.0561 28.1638 61.4404 26.54 68.0243C26.5391 68.0286 26.5272 68.0312 26.504 68.0312ZM41.6988 83.0601C41.3556 83.0601 40.925 82.9022 40.7093 82.687C37.0679 79.0532 33.4701 75.3734 29.8433 71.724C29.4495 71.3284 29.3716 70.9856 29.5189 70.4468C30.0804 68.3913 30.5366 66.3063 31.1179 64.2569C33.8151 54.742 37.6697 45.7677 43.3184 37.642C50.9616 26.6478 61.0367 18.6765 73.048 13.1304C75.2719 12.1031 77.548 11.1912 79.8147 10.2194C83.1865 21.5477 90.3683 28.8205 101.466 32.2156C97.4619 43.5213 91.5299 53.5386 82.8483 62.0131C82.2962 60.702 81.7826 59.5263 81.305 58.3359C80.9686 57.4951 80.4045 57.0821 79.5057 57.0821H79.4697C78.5641 57.0934 77.6584 57.0986 76.7528 57.0986C75.8377 57.0986 74.9227 57.0934 74.0085 57.0821H73.9751C73.0694 57.0821 72.5002 57.509 72.1912 58.3576C71.7837 59.4795 71.2787 60.5754 70.9799 61.7259C70.5588 63.3467 69.3356 64.4408 67.7417 64.9068C67.425 64.9987 67.1057 65.0404 66.7856 65.0404C64.9435 65.0404 63.0748 63.6721 61.4878 62.8374C61.1403 62.6552 60.8193 62.5675 60.5188 62.5675C60.0232 62.5675 59.5815 62.8044 59.1629 63.2452C57.9226 64.5519 56.7002 65.8759 55.4436 67.1662C54.7374 67.8915 54.6527 68.6533 55.0858 69.5488C55.6756 70.767 56.1558 72.0468 56.8183 73.2216C57.4603 74.3609 57.3807 75.2945 56.8945 76.5292C56.3475 77.9192 55.5583 78.5994 54.2204 79.0211C50.115 80.3148 46.0439 81.7213 41.942 83.0271C41.87 83.0497 41.7879 83.0601 41.6988 83.0601ZM102.728 28.9159C102.727 28.9159 102.726 28.915 102.725 28.915C93.1058 26.5446 85.2032 18.0458 83.3114 9.15303C83.2233 8.73568 94.4146 6.07454 95.4563 5.84895C97.5304 5.40036 99.6173 5.01078 101.714 4.68367C102.767 4.51881 103.822 4.37044 104.88 4.23769C105.815 4.12055 106.691 3.90451 107.636 3.90451H107.689C107.772 3.90537 107.867 3.91145 107.92 3.97652C107.966 4.03379 107.962 4.11535 107.956 4.1891C107.563 9.29619 106.542 14.4449 105.371 19.4219C105.181 20.2262 102.99 28.9159 102.728 28.9159ZM108.477 0C108.372 0 108.268 0.000867557 108.164 0.002603C106.16 0.0433832 104.204 0.460732 102.229 0.784372C100.341 1.095 98.4403 1.30237 96.5537 1.63555C92.6812 2.31928 88.848 3.23553 85.0859 4.393C77.655 6.67844 70.5203 9.9131 63.882 13.9972C53.5125 20.3754 44.8891 28.62 38.2731 38.9609C37.2323 40.5878 36.2855 42.2788 35.3456 43.9691C35.0495 44.5027 34.6985 44.763 34.1053 44.8628C23.3386 46.6658 12.5735 48.4861 1.80938 50.3056C0.656349 50.5009 0.0665671 51.1759 0.0639993 52.3603C0.0520152 56.7004 0.0511593 61.0404 0.0639993 65.3805C0.0674231 66.5744 0.577598 67.1731 1.73662 67.3761C5.79062 68.0876 9.84548 68.7974 13.9003 69.5045C15.9034 69.8533 17.9064 70.203 19.9094 70.5509C20.9358 70.7297 21.9613 70.9075 22.9876 71.0854C23.6981 71.2086 24.8323 71.206 25.4032 71.7041C25.7011 71.9635 25.8398 72.3574 26.0093 72.7158C26.5759 73.9123 27.61 74.5483 28.5045 75.4533C29.702 76.6637 30.897 77.8767 32.0963 79.0853C34.4254 81.4315 36.7709 83.7629 39.1779 86.0275C40.3138 87.0965 40.7204 88.1715 40.9499 89.578C42.1183 96.7588 43.3441 103.931 44.5459 111.107C44.825 112.773 45.3796 113.265 47.036 113.265C49.1837 113.266 51.3322 113.267 53.4808 113.267C55.4539 113.267 57.4269 113.267 59.4 113.264C60.9014 113.264 61.3953 112.848 61.6487 111.355C61.8336 110.271 62.0356 109.186 62.1375 108.093C62.2436 106.96 63.5379 106.522 64.4204 106.16C65.7198 105.626 66.967 104.872 68.1278 104.872C68.9178 104.872 69.6686 105.221 70.3688 106.227C71.5346 107.9 71.8625 109.992 72.5105 111.888C72.8332 112.83 73.4512 113.271 74.4236 113.271C74.4347 113.271 74.4467 113.271 74.4579 113.271C75.081 113.264 75.7042 113.263 76.3274 113.263C77.1525 113.263 77.9794 113.266 78.8055 113.266C79.0811 113.266 79.3576 113.265 79.6332 113.264C80.841 113.26 81.2964 112.936 81.7039 111.8C82.3476 110.007 82.9502 108.199 83.6496 106.429C83.8105 106.021 84.2419 105.664 84.6314 105.417C85.264 105.017 85.8863 104.834 86.5103 104.834C87.2396 104.834 87.9706 105.086 88.7188 105.538C89.8915 106.247 91.1986 106.721 92.421 107.351C92.7411 107.517 93.0441 107.599 93.3317 107.599C93.7615 107.599 94.1569 107.416 94.5224 107.053C95.9374 105.648 97.3344 104.224 98.7254 102.795C99.352 102.151 99.3263 101.419 98.9428 100.649C98.0175 98.797 95.4794 95.5051 96.6256 93.3706C97.9421 90.9194 100.9 90.5672 103.259 89.8132C104.177 89.5199 104.631 88.9143 104.633 87.9546C104.639 86.044 104.642 84.1325 104.631 82.2219C104.625 81.166 104.168 80.484 103.113 80.1517C101.531 79.6528 99.9734 79.0688 98.4258 78.4658C98.1219 78.3478 97.8283 78.0242 97.6734 77.7205C97.3241 77.0333 97.0108 76.3157 96.7891 75.5782C96.6658 75.1687 96.6162 74.6333 96.7746 74.2585C97.4491 72.6533 98.1955 71.0767 98.9522 69.5089C99.3956 68.59 99.2415 67.8334 98.5285 67.1436C97.1871 65.8473 95.8432 64.5536 94.5233 63.2356C94.0876 62.7992 93.6408 62.5753 93.1477 62.5753C92.8472 62.5753 92.5288 62.6586 92.1847 62.8278C90.8374 63.4925 89.4198 64.0183 88.1016 64.7341C87.6993 64.9536 87.3329 65.0517 86.9948 65.0517C86.5146 65.0517 86.0891 64.8538 85.692 64.525C87.9689 61.83 90.346 59.2444 92.4706 56.4609C99.9221 46.697 104.748 35.6282 107.962 23.788C109.086 19.6501 110.231 15.5217 111.014 11.2988C111.447 8.96127 111.816 6.59428 111.791 4.20819C111.781 3.23467 111.72 1.8759 111.144 1.04728C110.59 0.247285 109.457 0.00433828 108.561 0H108.477ZM47.2714 110.145H58.467L58.5243 109.77C58.5663 109.5 58.6108 109.231 58.6553 108.962C58.7726 108.258 58.8933 107.53 58.9549 106.801C58.9943 106.347 58.7101 105.865 58.4302 105.565C57.8609 104.952 57.2652 104.352 56.6891 103.77C56.3672 103.447 56.0462 103.123 55.7278 102.796C54.9394 101.985 54.8906 101.711 55.358 100.702C55.5557 100.276 55.7552 99.8512 55.9555 99.426C56.5144 98.233 57.0931 97.0001 57.6187 95.7636C57.8318 95.2621 57.7419 94.6521 57.6752 94.2062C57.2489 91.3246 54.4327 90.5385 52.1694 89.906C51.6952 89.7741 51.2475 89.6492 50.8332 89.5112C49.8693 89.1902 49.4781 88.732 49.4824 87.9295C49.4859 87.2457 49.485 86.5611 49.4841 85.8453V84.2844L48.9346 84.4301L43.9981 85.7421L43.541 85.8635L43.1515 85.9668L43.22 86.3685L44.9294 96.404L47.208 109.776L47.2714 110.145ZM66.8712 68.8408C66.6649 68.8408 66.4594 68.7844 66.2266 68.662C65.0873 68.0694 63.9145 67.5046 62.7795 66.9588C62.3455 66.7505 61.9124 66.5414 61.4792 66.3315C61.4048 66.295 61.3371 66.2785 61.2524 66.2577C61.2104 66.2473 61.1548 66.2334 61.0786 66.2126L60.8287 66.1441L60.6489 66.3341C60.47 66.5232 60.2877 66.7089 60.1071 66.8946C59.6363 67.3779 59.1501 67.8759 58.7152 68.4139C58.4336 68.7601 58.3411 69.4308 58.5166 69.8473C59.174 71.4117 59.8819 72.9171 60.488 74.183C60.8141 74.865 60.8064 75.4706 60.4632 76.2081C59.9042 77.4081 59.4385 78.6497 58.9703 79.9226C58.7169 80.6141 58.3317 80.9968 57.6846 81.2007C56.8851 81.4532 56.0847 81.7369 55.3109 82.012C54.6338 82.2514 53.9336 82.4996 53.242 82.7243C52.5649 82.943 52.2713 83.3586 52.261 84.1126L52.2601 84.162C52.2182 87.08 52.3492 87.2718 55.0635 88.2722C55.388 88.3919 55.7107 88.516 56.0325 88.6392C56.6874 88.8908 57.3644 89.1503 58.0475 89.3698C58.6185 89.5529 58.9446 89.9069 59.2125 90.6314C59.6474 91.8123 60.1499 92.9264 60.7063 93.9415C61.0461 94.5636 61.0718 94.9767 60.803 95.5215C60.3613 96.4178 59.9376 97.3393 59.5284 98.2295C59.1954 98.954 58.8513 99.7028 58.5004 100.431C58.2042 101.045 58.2821 101.522 58.7589 102.026L58.794 102.063C59.9333 103.267 60.4529 103.816 61.2883 103.816C61.8824 103.816 62.5039 103.521 63.6312 102.986C63.9308 102.844 64.2313 102.694 64.5214 102.55C65.2088 102.207 65.9201 101.853 66.6375 101.59C66.8686 101.506 67.1091 101.464 67.3736 101.464C68.1817 101.464 69.0488 101.863 69.8149 102.215L69.8851 102.247C70.1017 102.347 70.3208 102.439 70.5323 102.528C71.4875 102.931 72.3119 103.28 72.7921 104.137C73.1225 104.726 73.31 105.382 73.5086 106.077C73.6036 106.411 73.7029 106.757 73.8184 107.094C73.8843 107.285 73.9451 107.525 74.0102 107.779C74.1976 108.517 74.4108 109.354 74.9244 109.836C75.4645 110.344 76.2315 110.451 76.7793 110.451C77.1474 110.451 77.53 110.404 77.8844 110.314C79.0383 110.023 79.438 109.18 79.6966 108.312C80.0236 107.219 80.3762 106.119 80.7469 105.041C80.9206 104.535 81.073 104.119 81.3212 103.768C81.8288 103.05 82.6463 102.724 83.5117 102.378C83.6992 102.303 83.8935 102.225 84.0818 102.144C84.1726 102.105 84.2642 102.065 84.3575 102.024C85.0311 101.729 85.7955 101.394 86.4889 101.394C86.7902 101.394 87.0547 101.456 87.2987 101.582C88.1838 102.044 89.0988 102.471 89.9839 102.885C90.6388 103.19 91.3167 103.507 91.9733 103.832C92.2258 103.958 92.4381 104.016 92.6427 104.016C93.0535 104.016 93.3531 103.771 93.5423 103.587L93.5774 103.554C95.6994 101.492 95.7328 101.305 94.4608 98.5566C94.3076 98.2269 94.1569 97.8955 94.0063 97.5632C93.7341 96.9636 93.4524 96.3432 93.1597 95.7385C92.8464 95.092 92.8567 94.4986 93.1914 93.8148C93.4413 93.3047 93.663 92.7762 93.877 92.2652C94.1518 91.6092 94.4351 90.9298 94.7749 90.3095C95.0335 89.8366 95.5145 89.3819 95.9451 89.2049L95.9605 89.198L95.9759 89.1902C97.0707 88.6357 98.2974 88.2791 99.4838 87.9347C99.7928 87.8453 100.102 87.7551 100.408 87.6622C100.648 87.5893 100.945 87.4991 101.19 87.2692C102.067 86.4431 101.793 84.3182 101.317 83.526C100.859 82.7651 99.9092 82.4684 99.1465 82.2297C98.9967 82.1829 98.8546 82.1378 98.7279 82.0935C98.4455 81.9946 98.1416 81.9061 97.848 81.8202C96.8644 81.5321 95.8484 81.2354 95.2928 80.4944C94.9693 80.0632 94.7467 79.5313 94.5318 79.0168L93.4019 76.314C93.063 75.5044 92.944 74.9865 93.235 74.4043C93.6048 73.6641 93.9523 72.9014 94.2887 72.1648C94.6115 71.4585 94.9444 70.7279 95.2937 70.0251C95.666 69.2763 95.5556 68.7002 94.935 68.1596C94.7347 67.9844 94.531 67.7449 94.3341 67.5141C93.9001 67.003 93.4507 66.4746 92.837 66.3636C92.7539 66.3488 92.6675 66.341 92.5785 66.341C91.8757 66.341 91.1378 66.8148 90.4864 67.2321C90.3957 67.2902 90.3075 67.3466 90.221 67.4004C89.2392 68.0156 88.0519 68.3401 86.7876 68.3401C84.8574 68.3401 82.9211 67.5722 81.6089 66.2863C80.532 65.2304 80.0039 63.5601 79.593 62.0773C79.3952 61.3623 79.0879 60.8825 78.654 60.6101C78.2884 60.381 77.6456 60.2439 76.9351 60.2439C76.6133 60.2439 75.8095 60.2769 75.2959 60.5892C74.5435 61.0456 74.2447 61.9966 74.005 62.761C73.958 62.9111 73.9143 63.0526 73.8698 63.1801C73.7962 63.3892 73.7217 63.5983 73.6472 63.8083C73.4221 64.4434 73.1884 65.1011 72.9855 65.7605C72.8041 66.348 72.4445 66.695 71.7426 66.9571C70.4321 67.4473 69.0283 67.9887 67.6415 68.6325C67.3317 68.7766 67.0946 68.8408 66.8712 68.8408ZM26.504 68.4755C26.7822 68.4755 26.9269 68.2898 26.9654 68.1319C28.7211 61.0101 30.8816 54.7429 33.5703 48.9738L33.9255 48.2111L33.1038 48.3456C25.8877 49.5239 20.3742 50.461 15.2263 51.3833C12.3048 51.9065 9.28309 52.4479 6.28282 52.6371C6.16041 52.6449 6.0303 52.6492 5.89591 52.6536C5.19741 52.677 4.32943 52.7056 3.73109 53.2115C3.28683 53.5872 3.04886 54.2015 3.04373 54.9884C3.03859 55.6826 3.04629 56.388 3.05314 57.07C3.05828 57.5949 3.06341 58.1381 3.06341 58.6717C3.06341 59.5558 3.07197 60.4539 3.07968 61.3224C3.08824 62.1901 3.0968 63.0873 3.0968 63.9679C3.0968 64.0417 3.0968 64.2387 3.24403 64.4096C3.38184 64.564 3.55476 64.5918 3.62923 64.6039C3.9254 64.6525 4.22158 64.7011 4.51775 64.7506C6.89657 65.1506 9.27453 65.554 11.6525 65.9566C12.9271 66.1727 14.2016 66.3887 15.4762 66.6039C15.6663 66.636 16.2458 66.7401 17.0478 66.8833C22.3901 67.8386 26.0427 68.4755 26.504 68.4755ZM41.6988 83.5043C41.835 83.5043 41.9608 83.4861 42.0729 83.4506C44.0152 82.8328 45.9805 82.182 47.8817 81.553C49.9995 80.851 52.1882 80.1265 54.3505 79.4454C55.8656 78.9682 56.7199 78.1708 57.3011 76.694C57.7899 75.4524 57.9594 74.3496 57.1992 73.0012C56.7952 72.2854 56.4511 71.5062 56.1181 70.7531C55.9144 70.2924 55.7038 69.816 55.4795 69.3527C55.1183 68.6082 55.2013 68.0468 55.7552 67.4777C56.5846 66.6273 57.4107 65.7484 58.2102 64.8989C58.6322 64.4495 59.0542 64.0009 59.4788 63.5532C59.8297 63.1836 60.1601 63.0118 60.5188 63.0118C60.7525 63.0118 61.0042 63.0838 61.2866 63.2322C61.6213 63.4083 61.968 63.6079 62.3352 63.8196C63.6903 64.5996 65.2259 65.4846 66.7856 65.4846C67.1571 65.4846 67.52 65.4334 67.8633 65.3336C69.6737 64.8044 70.9645 63.5306 71.4037 61.8396C71.5997 61.0847 71.8976 60.3289 72.1852 59.5984C72.3256 59.2435 72.4702 58.8773 72.6029 58.5112C72.8537 57.8214 73.2637 57.5264 73.9751 57.5264H74.0033C74.9269 57.5377 75.8523 57.5429 76.7528 57.5429C77.667 57.5429 78.5829 57.5368 79.4749 57.5264H79.5057C80.2085 57.5264 80.6253 57.8179 80.8992 58.5025C81.2322 59.3329 81.5806 60.1519 81.9495 61.0187C82.1113 61.3988 82.2765 61.7866 82.4452 62.1875L82.6951 62.7801L83.1522 62.3333C91.4956 54.1902 97.6211 44.3873 101.879 32.3657L102.035 31.925L101.593 31.7896C96.136 30.1211 91.5804 27.4591 88.0537 23.8782C84.521 20.2921 81.8896 15.6536 80.2341 10.091L80.0929 9.6181L79.6435 9.81072C78.9287 10.117 78.2003 10.4224 77.4958 10.7183C75.9704 11.3586 74.3937 12.0207 72.8657 12.727C66.7376 15.5564 61.1539 19.0123 56.2705 22.9975C51.1987 27.1363 46.7201 31.977 42.9606 37.3861C37.6414 45.0372 33.6302 53.7867 30.6967 64.1345C30.38 65.253 30.0958 66.3965 29.821 67.5037C29.5908 68.4321 29.3519 69.3926 29.0969 70.3279C28.906 71.0273 29.0369 71.5392 29.5343 72.0399C30.9912 73.5053 32.4686 75.0012 33.8964 76.4476C36.0236 78.6012 38.2226 80.8285 40.402 83.0037C40.6982 83.2987 41.2315 83.5043 41.6988 83.5043ZM102.674 29.3601H102.728C103.144 29.3601 103.23 29.3601 104.5 24.5862C105.106 22.3051 105.701 19.9321 105.798 19.5243C107.254 13.3369 108.055 8.61768 108.394 4.22381C108.402 4.12489 108.42 3.89323 108.258 3.69453C108.071 3.46373 107.796 3.46113 107.692 3.46026H107.636C106.962 3.46026 106.321 3.56438 105.703 3.66503C105.416 3.71188 105.12 3.76047 104.826 3.79691C103.772 3.9288 102.703 4.07977 101.647 4.24463C99.572 4.56827 97.4585 4.96219 95.3647 5.41425C94.8597 5.52357 91.892 6.22378 89.0132 6.95696C83.2421 8.42852 83.0872 8.67234 82.9502 8.88665C82.8809 8.99511 82.8569 9.12353 82.8834 9.24674C83.8293 13.6953 86.2886 18.1507 89.8076 21.7906C93.4054 25.5138 97.9567 28.1975 102.619 29.3463L102.674 29.3601ZM108.477 0.444246H108.558C108.943 0.445981 110.239 0.514527 110.786 1.30324C111.331 2.08674 111.346 3.57653 111.353 4.21339C111.378 6.58733 110.998 8.9821 110.584 11.2172C109.852 15.1642 108.781 19.1034 107.745 22.9125L107.54 23.67C104.047 36.5366 99.0044 47.1742 92.1239 56.1884C90.6764 58.0852 89.0783 59.9272 87.5324 61.7085C86.8176 62.5328 86.078 63.3857 85.359 64.236L85.0671 64.5822L85.4146 64.8694C85.9239 65.2911 86.441 65.4959 86.9948 65.4959C87.4151 65.4959 87.8576 65.371 88.3087 65.1263C89.0586 64.7185 89.8632 64.3645 90.6413 64.0217C91.2132 63.7701 91.8038 63.5098 92.3764 63.2278C92.6615 63.0873 92.9132 63.0196 93.1477 63.0196C93.5132 63.0196 93.8522 63.1888 94.216 63.5515C95.4178 64.7514 96.6573 65.9497 97.8565 67.1089L98.2255 67.4655C98.811 68.0312 98.9103 68.5839 98.5585 69.3136C97.8737 70.734 97.0827 72.3921 96.3714 74.0841C96.106 74.714 96.3029 75.4862 96.3697 75.7084C96.5768 76.3981 96.8764 77.1227 97.2839 77.9244C97.4525 78.2541 97.8103 78.7018 98.2691 78.8805C99.6593 79.422 101.306 80.0467 102.983 80.576C103.825 80.8415 104.188 81.3352 104.193 82.2245C104.203 84.0275 104.201 85.8184 104.195 87.9538C104.193 88.7112 103.864 89.1546 103.127 89.3897C102.706 89.5242 102.271 89.644 101.81 89.7715C99.7466 90.3407 97.4071 90.9862 96.2404 93.158C95.2098 95.0782 96.7318 97.6829 97.842 99.584C98.1133 100.047 98.3693 100.485 98.5516 100.851C98.8914 101.532 98.8495 102.035 98.4138 102.483C97.2702 103.658 95.7593 105.203 94.216 106.735C93.9318 107.017 93.6425 107.154 93.3317 107.154C93.1152 107.154 92.8755 107.088 92.6196 106.956C92.1248 106.701 91.6129 106.469 91.1181 106.245C90.3854 105.914 89.6278 105.57 88.943 105.156C88.0896 104.641 87.2935 104.39 86.5103 104.39C85.7921 104.39 85.0825 104.609 84.3994 105.041C83.9894 105.3 83.4561 105.723 83.2421 106.264C82.7456 107.522 82.2911 108.817 81.8511 110.069C81.6662 110.596 81.4805 111.122 81.2921 111.648C80.948 112.609 80.6527 112.817 79.6324 112.82C79.3567 112.821 79.0811 112.822 78.8055 112.822C78.392 112.822 77.9794 112.821 77.5668 112.82C77.1534 112.819 76.7399 112.819 76.3274 112.819C75.5955 112.819 75.0006 112.821 74.4536 112.827H74.4236C73.6327 112.827 73.185 112.503 72.9248 111.743C72.7459 111.218 72.5866 110.662 72.4326 110.125C72.026 108.703 71.6057 107.232 70.7274 105.971C70.0033 104.932 69.1532 104.428 68.1278 104.428C67.1699 104.428 66.2257 104.861 65.2268 105.318C64.9092 105.464 64.5805 105.615 64.2561 105.748C64.1945 105.773 64.1302 105.799 64.0652 105.825C63.1732 106.185 61.8251 106.727 61.7009 108.052C61.6162 108.966 61.4553 109.898 61.3003 110.799C61.2721 110.959 61.2447 111.12 61.2173 111.279C60.999 112.56 60.6934 112.819 59.3992 112.82C57.4261 112.822 55.4539 112.823 53.4808 112.823C51.3322 112.823 49.1845 112.822 47.036 112.821C45.6065 112.821 45.2213 112.486 44.9782 111.032C44.6195 108.892 44.2591 106.754 43.8988 104.615C43.0642 99.6638 42.2022 94.5446 41.3821 89.5051C41.1502 88.0804 40.7376 86.8891 39.4758 85.7021C36.9335 83.3091 34.4742 80.8554 32.4053 78.7704C31.6135 77.9721 30.8243 77.173 30.035 76.3739C29.6276 75.9617 29.2218 75.5504 28.8144 75.1383C28.5473 74.8684 28.27 74.6229 28.002 74.386C27.3686 73.8246 26.7694 73.2945 26.4039 72.5231C26.3756 72.4624 26.3474 72.3999 26.3191 72.3383C26.1728 72.013 26.0067 71.6442 25.6891 71.3674C25.1507 70.898 24.3255 70.8026 23.5979 70.7184C23.4019 70.6958 23.217 70.6741 23.0612 70.6472C22.0357 70.4694 21.0094 70.2915 19.9839 70.1128C17.9809 69.7648 15.977 69.416 13.9748 69.0664C9.91995 68.3592 5.86509 67.6495 1.81109 66.9388C0.860077 66.7714 0.504838 66.3488 0.50227 65.3796C0.490286 61.1732 0.48943 56.7941 0.50227 52.362C0.503982 51.4041 0.930269 50.9052 1.88214 50.7438L2.10555 50.7065C12.6163 48.9295 23.4849 47.0918 34.1763 45.3009C34.8962 45.1803 35.3602 44.8471 35.7274 44.1877C36.7281 42.3882 37.6371 40.7708 38.6412 39.203C45.0526 29.1814 53.6212 20.8284 64.1088 14.3764C70.7283 10.3053 77.8288 7.08885 85.2135 4.81816C88.9037 3.68238 92.7445 2.75918 96.629 2.07373C97.6605 1.89065 98.7177 1.74401 99.7397 1.60171C100.579 1.48458 101.447 1.36311 102.299 1.22341C102.697 1.15834 103.094 1.08892 103.491 1.02038C105.021 0.754003 106.603 0.478085 108.173 0.446849C108.274 0.445113 108.375 0.444246 108.477 0.444246Z" fill="white"/>
<path d="M72.5155 30.8603C70.1632 30.8603 67.9727 31.7601 66.3472 33.3939C64.7216 35.0294 63.8271 37.2324 63.828 39.5994C63.8305 44.4237 67.7407 48.3629 72.5437 48.3811H72.5737C77.2286 48.3811 81.1687 44.3612 81.1773 39.6038C81.1867 34.7934 77.3099 30.8707 72.5369 30.8603H72.5155ZM72.6122 51.549C69.4356 51.5446 66.4619 50.3255 64.2388 48.1173C62.0167 45.91 60.7866 42.9538 60.7755 39.7955C60.7643 36.5852 61.9841 33.5735 64.2097 31.3132C66.4353 29.0521 69.4133 27.8026 72.5951 27.7939H72.6267C79.0168 27.7939 84.2161 33.118 84.2178 39.6628C84.2187 42.8141 83.0066 45.7928 80.8049 48.0505C78.6042 50.3064 75.6998 51.549 72.6285 51.549H72.6122Z" fill="black"/>
<path d="M72.5721 48.1589H72.543C67.8342 48.1416 64.0481 44.3273 64.0455 39.5985C64.043 34.829 67.7708 31.0824 72.5139 31.0815H72.5353C77.1791 31.0928 80.9652 34.9235 80.9566 39.6029C80.948 44.2527 77.1166 48.1589 72.5721 48.1589ZM72.6252 27.5718H72.5927C65.8936 27.59 60.5308 33.0363 60.5548 39.7963C60.5787 46.4514 65.9244 51.7615 72.6098 51.771H72.6269C79.0999 51.771 84.4371 46.3013 84.4354 39.6627C84.4337 33.032 79.0965 27.5718 72.6252 27.5718ZM72.5721 48.6032C77.3452 48.6032 81.3855 44.4818 81.3949 39.6037C81.4043 34.671 77.4299 30.6494 72.5362 30.6372H72.5139C70.1034 30.6381 67.8581 31.5604 66.1915 33.2359C64.524 34.9131 63.6055 37.1734 63.6073 39.5994C63.6081 42.0054 64.5369 44.264 66.2206 45.9603C67.9035 47.6557 70.1479 48.5945 72.5413 48.6032H72.5721ZM72.6252 28.016C75.6374 28.016 78.4853 29.2334 80.645 31.4433C82.8064 33.655 83.9963 36.5738 83.9971 39.6627C83.998 42.7551 82.8081 45.6783 80.6476 47.8943C78.4879 50.1077 75.6392 51.3268 72.6269 51.3268H72.6106C69.4922 51.3224 66.5733 50.1259 64.3905 47.9585C62.2111 45.7928 61.0042 42.8939 60.993 39.7946C60.9819 36.6441 62.1786 33.688 64.3631 31.4693C66.5476 29.2516 69.4708 28.0247 72.5944 28.016H72.6252Z" fill="white"/>
<path d="M76.9208 78.6011C73.5003 78.6011 70.7987 81.3031 70.7713 84.752C70.7577 86.444 71.3825 88.0223 72.5313 89.1971C73.6826 90.3745 75.2388 91.0244 76.914 91.0262C78.596 91.0262 80.1522 90.3806 81.3035 89.2075C82.4523 88.037 83.0797 86.4605 83.0712 84.7694C83.0532 81.3152 80.356 78.6064 76.9311 78.6011H76.9208ZM76.9208 94.1385C71.8704 94.1385 67.7522 89.9763 67.7403 84.8605C67.7343 82.3339 68.6836 79.9747 70.4118 78.215C72.135 76.4632 74.4461 75.4966 76.9217 75.4932C81.9764 75.4932 86.0886 79.651 86.1014 84.7625C86.1074 87.2917 85.1555 89.6552 83.4196 91.4201C81.6964 93.1719 79.3887 94.1376 76.9234 94.1385H76.9208Z" fill="black"/>
<path d="M76.9221 90.804H76.9152C73.5768 90.8005 70.9635 88.1316 70.9909 84.7537C71.0174 81.4228 73.6171 78.8241 76.9212 78.8232H76.9306C80.2408 78.8284 82.8353 81.434 82.8524 84.7702C82.8695 88.1489 80.2596 90.804 76.9221 90.804ZM76.9349 75.271H76.9221C71.6722 75.2779 67.5087 79.5252 67.5215 84.8605C67.5335 90.1185 71.7313 94.3606 76.9212 94.3606H76.9238C82.1608 94.3588 86.3346 90.0951 86.3209 84.7615C86.3072 79.4948 82.1283 75.271 76.9349 75.271ZM76.9212 91.2482H76.9221C78.6555 91.2482 80.2665 90.5793 81.4597 89.3645C82.6496 88.1515 83.3001 86.5194 83.2907 84.7676C83.2719 81.1902 80.4787 78.3842 76.9212 78.379C73.3782 78.3798 70.5808 81.1781 70.5526 84.7503C70.538 86.5012 71.186 88.1359 72.3759 89.3532C73.5691 90.5732 75.1801 91.2465 76.9144 91.2482H76.9212ZM76.9349 75.7152C79.33 75.7152 81.577 76.6532 83.2607 78.3556C84.9453 80.0588 85.8767 82.3347 85.8827 84.7633C85.8886 87.2327 84.959 89.5407 83.265 91.263C81.583 92.9732 79.3309 93.9154 76.9212 93.9163C71.9915 93.9163 67.9718 89.8539 67.9598 84.8596C67.9538 82.3928 68.88 80.0892 70.568 78.372C72.2483 76.6619 74.5056 75.7187 76.9229 75.7152H76.9349Z" fill="white"/>
</svg>
