<svg width="112" height="114" viewBox="0 0 112 114" fill="none" xmlns="http://www.w3.org/2000/svg">
<path d="M54.1707 10.8578H50.6455V7.33057H54.1707V10.8578ZM39.5924 30.6214C34.5395 30.493 31.4191 36.0702 32.0507 40.4016C31.7426 45.1425 34.6644 49.7629 39.8731 49.7924C46.6873 49.6015 47.9898 43.2549 47.2632 37.3289C47.0938 33.413 43.4479 30.6283 39.5924 30.6214ZM83.1442 30.6153C77.9681 30.5936 75.0018 35.3892 75.4485 40.2446C75.0095 44.6698 77.5548 49.3179 82.4433 49.749C89.6075 50.2582 91.4073 43.6131 90.6243 37.4122C90.4086 33.668 86.9818 30.617 83.1442 30.6153ZM35.8421 52.3489C35.0795 55.0764 37.422 56.932 39.7806 57.1193C42.2617 57.089 44.7916 54.4327 43.5198 51.8605C41.037 52.7714 38.4293 52.7237 35.9225 51.844L35.8421 52.3489ZM33.1154 56.7246C22.2206 59.5926 23.0653 58.3512 23.2442 69.8647H49.497C48.6728 64.4359 50.7619 62.9559 56.2778 62.5126C56.1956 60.6223 55.2936 59.2421 53.3748 58.6782C51.0982 58.2202 46.6025 55.9309 45.2058 57.2217C42.1042 60.3916 37.8037 60.9962 34.5378 57.436C34.2006 57.0829 33.6032 56.7246 33.1154 56.7246ZM63.6517 69.9523C66.3955 69.9558 69.8984 69.9827 72.4137 69.9211C73.0257 69.9064 73.8481 69.5533 74.2872 69.1161C77.4786 65.9367 80.6914 62.6731 83.7981 59.5171C85.2102 58.0042 88.6447 55.5162 86.4016 53.298C84.2397 51.229 82.0393 54.2783 80.5819 55.7105C77.6455 58.6791 74.609 61.7483 71.6418 64.7872C71.2241 65.214 70.8364 65.3806 70.2587 65.3806C67.9711 65.3676 65.5148 65.3615 62.7325 65.3615C60.0161 65.6929 54.3316 64.448 52.5583 66.452C51.2061 68.1636 53.2164 70.0955 55.0188 69.9445C57.4965 69.9697 61.1321 69.9454 63.6517 69.9523ZM15.8976 77.1986H72.6054V72.7683H15.8976V77.1986ZM70.0927 84.5117C75.0557 84.51 80.9131 84.654 85.6518 84.4536C88.5437 84.3373 90.7415 81.8441 90.7638 78.6543C90.8057 72.7188 90.792 66.8432 90.7851 61.0361C90.7834 59.8164 89.8009 59.0877 88.8518 59.0877C87.5852 59.0808 86.9133 60.395 86.0644 61.161C83.0569 64.7204 79.1107 67.4878 76.4482 71.3612C75.0437 73.5126 75.4143 77.2272 75.4699 80.0458H70.0927V84.5117ZM70.0842 91.7406C75.8225 92.1761 82.9662 91.8222 88.3957 91.8655C93.8568 91.7614 98.1556 87.6243 98.0007 81.8337C97.9768 75.1036 98.1077 68.4672 97.9382 61.7943H93.4956C93.2825 87.2131 96.6425 87.8672 70.0842 87.332V91.7406ZM42.9721 105.661C39.0207 105.661 34.8938 105.667 30.7062 105.678C28.992 105.758 28.4819 108.804 27.6141 110.094H59.1662C58.2633 108.743 57.8611 105.917 56.0749 105.682C51.8411 105.668 47.4327 105.661 42.9721 105.661ZM70.1124 110.136H81.5977L80.0769 94.7318H70.1124V110.136ZM86.0721 94.6823C85.0502 94.7587 84.0078 94.5453 83.1768 94.8107C82.5794 95.1759 83.454 99.6714 83.4215 100.624C83.698 103.479 83.977 106.334 84.2679 109.188C84.5461 110.878 87.5253 109.963 88.8279 110.179L87.3336 95.1039C87.2933 94.6823 87.0588 94.6823 86.0721 94.6823ZM21.9715 110.18C23.2022 110.166 24.4671 110.508 25.0311 109.126C25.9366 107.176 26.9157 105.32 27.8323 103.375C28.024 102.966 28.2097 102.854 28.6941 102.854C38.502 102.873 48.2988 102.873 58.1041 102.854C58.5706 102.854 58.752 102.971 58.9531 103.4C59.7764 105.152 60.7042 107.033 61.7902 109.152C62.5391 110.92 65.5944 109.965 67.2179 110.185V87.2947H29.431V84.6002H67.2385V80.0813H19.5709V84.6366H24.8292V87.3693H19.5504V110.193C20.3557 110.196 21.173 110.182 21.9715 110.18ZM0.488281 112.976V110.112C5.31777 110.284 11.7357 110.158 16.6294 110.193V80.0406H13.2189V69.9766H20.3668C20.3865 67.8885 20.3514 65.4864 20.3677 63.4461C19.8935 56.532 26.6752 55.5622 31.835 54.1637C33.9327 53.6042 33.1385 50.0023 31.6673 48.5041C30.4306 47.2228 29.6895 45.4835 29.5337 43.5229C28.1455 36.0034 31.5235 27.7638 40.028 27.8462C45.2837 27.7135 50.3571 32.9185 50.1525 38.5226C50.2938 42.4168 50.257 46.4282 47.2119 49.3647C46.5897 50.325 45.7869 54.0293 47.7117 54.1403C52.8664 56.1859 58.6236 55.6012 59.2638 62.6323C61.2228 62.6046 63.8151 62.6532 65.7399 62.6367C67.6647 62.4502 68.7816 63.0895 70.3563 62.1257C72.406 60.0862 75.5127 56.932 77.9185 54.4812C79.0097 53.5895 80.3559 52.1442 78.3866 51.3695C75.2423 49.546 73.0085 46.7231 72.8228 43.0015C71.7445 36.6479 74.2641 29.0633 81.2965 28.0518C87.5544 26.5276 94.0656 32.4952 93.4853 39.1706C93.7036 43.3433 93.2457 47.1439 89.729 50.2175C93.4545 51.9724 93.8251 55.5648 93.4177 58.9211H100.679C100.793 66.5014 100.704 74.053 100.715 81.7053C100.87 88.5126 96.4174 93.2761 90.0722 94.6789C90.3127 97.2692 90.6131 100.785 90.9169 103.506C91.1001 105.216 91.2884 106.983 91.4125 108.722C91.4998 109.955 92.1194 110.207 93.0223 110.207C98.7102 110.189 106.963 110.187 111.57 110.193V112.976H0.488281Z" fill="black"/>
<path d="M28.32 109.651C29.1364 108.435 29.2605 106.424 30.7086 106.122C34.7986 106.111 38.8887 106.105 42.9796 106.105C47.3444 106.105 51.7091 106.112 56.0731 106.127C57.5288 106.515 57.6487 108.412 58.46 109.651H28.32ZM70.5513 109.692V95.1757H79.6813C80.1546 99.9739 80.6279 104.764 81.114 109.692H70.5513ZM86.7335 109.741C86.0454 109.642 84.937 110.063 84.7051 109.142C84.4141 106.288 84.1343 103.434 83.8587 100.58C83.7697 98.7846 83.3366 96.9437 83.441 95.1662C83.7183 95.1133 85.0663 95.1462 86.0753 95.1263C86.5486 95.1263 86.8969 95.1324 86.8986 95.1488C87.3745 99.9548 87.8503 104.748 88.3441 109.734C87.7973 109.734 87.2624 109.741 86.7335 109.741ZM20.0098 84.1922V80.5253H66.801V84.1558H28.9935V87.7386H66.7804V109.74C65.5027 109.74 64.2369 109.787 62.9668 109.705C61.6061 108.859 60.306 104.8 59.3492 103.209C59.0771 102.627 58.7433 102.408 58.104 102.41C53.2034 102.419 48.3029 102.424 43.4024 102.424C38.4993 102.424 33.5971 102.419 28.6948 102.41C28.0683 102.41 27.714 102.594 27.4367 103.183C26.5287 105.114 25.5333 107.002 24.6356 108.937C23.9047 110.477 21.4219 109.466 19.9901 109.748V87.8132H25.268V84.1922H20.0098ZM16.3365 73.2131H72.1679V76.7542H16.3365V73.2131ZM78.6963 87.7828C98.8136 89.3903 93.0538 76.5885 93.9345 62.2391H97.5204C97.6462 68.7697 97.5495 75.2994 97.5632 81.8318C97.7909 87.1426 93.6007 91.4021 88.3886 91.4203C82.4371 91.4428 76.4591 91.6016 70.523 91.3778V87.7759C73.2557 87.7698 75.967 87.7776 78.6963 87.7828ZM79.446 84.1176C76.4874 84.1176 73.5193 84.0673 70.5316 84.0673V80.4889C76.9675 80.0855 75.8926 82.3679 75.8138 76.0108C75.5117 71.8728 78.6869 69.0525 81.4564 66.5402C83.6045 64.4287 85.6577 62.2218 87.7365 60.0417C88.0454 59.6982 88.4597 59.5282 88.8525 59.5316C89.6168 59.5316 90.3459 60.1224 90.3476 61.0359C90.3545 66.8092 90.3682 72.7299 90.3263 78.6515C90.1876 85.0372 83.8998 84.0743 79.446 84.1176ZM23.683 69.4203C23.4699 58.5757 22.7818 60.0053 32.992 57.1833C34.9801 57.5398 35.8017 60.3757 39.7771 60.3497C42.8555 60.5674 44.0691 57.9745 46.4868 57.1755C48.7634 57.7064 51.0056 58.4256 53.2471 59.1031C54.8466 59.601 55.6357 60.5674 55.7966 62.1133C50.107 62.672 48.4475 64.4487 49.0064 69.4203H23.683ZM70.2594 65.8245C70.9629 65.8245 71.4585 65.6059 71.9531 65.0993C75.8061 61.2346 79.5444 57.2301 83.5001 53.4799C85.3085 52.0555 87.7091 54.4654 86.2422 56.3349C82.254 60.5805 78.0749 64.6543 73.9815 68.7992C72.3665 70.0658 70.0429 69.3076 68.1395 69.5175C63.767 69.501 59.3946 69.5192 55.0221 69.5002C51.7537 69.4689 51.8178 65.8644 55.0572 65.8159C60.1246 65.8054 65.192 65.7959 70.2594 65.8245ZM39.7813 56.6749C37.676 56.4711 35.5706 54.9018 36.2758 52.419C38.5909 53.1416 40.917 53.1754 43.2312 52.4216C44.0948 54.7309 41.719 56.6003 39.7813 56.6749ZM39.8729 49.348C35.0777 49.3757 32.1473 44.9662 32.4887 40.384C31.9008 35.9129 34.9827 30.9794 39.5931 31.0653C43.1841 31.1052 46.6263 33.5472 46.8274 37.3669C47.5147 42.6951 46.4192 49.2743 39.8729 49.348ZM83.2228 49.3489C78.3608 49.3723 75.3945 44.9228 75.8874 40.2513C75.4929 35.5113 78.1845 31.0913 83.1458 31.0592C86.6975 31.0896 89.9463 33.7754 90.1885 37.4467C90.8398 42.7428 89.7058 49.2873 83.2228 49.3489ZM40.0287 27.4018C31.2384 27.3272 27.6498 35.827 29.1048 43.6355C29.2768 45.596 30.0111 47.4187 31.3548 48.8145C32.4417 49.8034 33.4986 53.2093 31.7245 53.7332C20.4608 56.4156 19.4672 57.8096 19.9293 69.5323H12.7814V80.4845H16.1919V109.749C10.7813 109.711 5.43999 109.85 0.0507812 109.652V113.42H112.009V109.749C105.682 109.751 99.3716 109.734 93.0461 109.763C92.263 109.768 91.9104 109.6 91.8496 108.69C91.4782 104.138 90.9082 99.5358 90.5428 94.9962C97.0309 93.4806 101.286 88.5176 101.154 81.706C101.121 73.9548 101.279 66.2271 101.087 58.4768H93.8951C94.1844 55.0492 93.7436 51.9843 90.4512 50.1175C93.9362 47.004 94.1193 42.5936 93.9156 38.2743C94.0363 31.7151 87.4233 26.117 81.2159 27.6144C73.9198 28.6814 71.2582 36.5349 72.3947 43.1392C72.5942 46.9224 74.9982 49.9388 78.1614 51.7492C78.6663 52.0589 79.2996 52.2567 78.8264 52.9282C77.6265 54.2433 76.2845 55.4596 75.0598 56.76C73.4842 58.0048 70.5975 62.155 68.8755 62.1723C65.8014 62.2148 62.7144 62.1784 59.641 62.1879C58.7339 54.7682 52.2706 55.9176 47.1047 53.3481C46.7513 52.8883 47.1047 50.1157 47.5275 49.6742C49.2067 47.9192 50.2508 45.8216 50.5041 43.4064C50.7549 39.2762 50.9851 34.5882 48.0111 31.3316C45.8022 28.7803 43.1242 27.4018 40.0287 27.4018ZM26.9095 110.539H59.873C59.1575 109.143 58.4942 107.57 57.7334 106.232C57.1223 104.263 45.7722 105.584 42.9796 105.215C40.6474 105.572 29.8185 104.318 29.0928 106.125C28.3259 107.498 27.6319 109.109 26.9095 110.539ZM69.6749 110.58H82.0828C81.9836 109.582 80.5783 95.3397 80.4747 94.2874H69.6749V110.58ZM86.7335 110.629C87.5431 110.626 88.4939 110.62 89.3129 110.623L89.2162 109.645L87.8161 95.5193C87.7622 94.9675 87.7819 94.3716 86.8969 94.2518C86.0214 94.2171 84.6238 94.2536 83.8561 94.257C82.5955 94.0688 82.3593 95.259 82.5595 96.261C82.8668 99.3944 83.2374 103.304 83.5232 106.157C83.8698 108.659 83.2297 111.089 86.7335 110.629ZM19.1334 85.0806H24.3917V86.9249H19.1137V110.636C24.6125 110.509 24.5038 111.785 26.895 106.296C27.3409 105.727 28.0469 103.173 28.6991 103.298C38.5275 103.317 48.332 103.317 58.1091 103.298C58.4035 103.298 58.4283 103.315 58.5584 103.591C59.3843 105.348 60.3146 107.234 61.4024 109.357C62.2402 111.438 65.7671 110.404 67.6568 110.629V86.8503H29.8699V85.0441H67.6774V79.637H19.1334V85.0806ZM15.4601 77.6426H73.0443V72.3248H15.4601V77.6426ZM78.6963 86.8945C75.6829 86.8876 72.6609 86.8832 69.6467 86.8876V92.103C75.5083 92.7276 82.8248 92.2184 88.4023 92.3095C94.0825 92.2236 98.58 87.8262 98.4396 81.8352C98.4071 74.9559 98.5671 68.1711 98.3583 61.3508H93.0581C93.0307 67.3435 93.1385 73.2669 92.9648 79.283C92.364 87.4124 84.6101 87.0698 78.6963 86.8945ZM75.023 79.6005H69.6552V84.9556C96.1374 85.4371 90.5522 85.9038 91.224 61.035C91.2223 59.6939 90.1808 58.6433 88.8525 58.6433C87.4472 58.6077 86.6658 59.9845 85.7475 60.8546C82.7067 64.453 78.7562 67.1995 76.0714 71.1345C74.6815 73.3406 74.9332 76.612 75.023 79.6005ZM22.8067 70.3087H49.9881C49.0115 64.6048 51.0339 63.314 56.7612 62.9114C56.6978 60.6932 55.8086 58.8949 53.5047 58.2538C50.9209 57.4947 48.7394 56.7322 46.4868 56.2872C43.8953 56.7574 42.6056 59.7563 39.7762 59.4605C36.1611 59.6496 35.0648 56.0824 32.7772 56.3219C21.368 59.2688 22.7348 58.6312 22.8067 70.3087ZM70.2594 64.9362C67.9838 64.9232 65.5301 64.9171 62.746 64.9171C59.7283 65.2633 54.1945 63.9282 52.2201 66.1689C50.6051 68.1625 52.8919 70.5776 55.0178 70.3885C56.2622 70.3954 57.593 70.398 59.3347 70.398C62.2702 70.3946 65.2048 70.398 68.1395 70.4058C70.7079 70.1976 72.714 71.0087 74.5951 69.4325C78.5439 65.4966 82.4157 61.5477 86.2833 57.6223C89.3283 55.2019 86.2636 50.4679 82.9883 52.7582C78.9924 56.5093 75.2455 60.5579 71.3301 64.4738C70.9937 64.8191 70.7233 64.9362 70.2594 64.9362ZM39.7813 57.5633C42.9796 57.3785 45.2912 54.4828 43.8098 51.2999C41.1318 52.3669 38.2708 52.2888 35.5706 51.2686L35.4106 52.2776C34.6001 55.2661 37.1599 57.3846 39.7813 57.5633ZM39.8729 50.2363C46.9404 50.0541 48.4895 43.4689 47.7004 37.2914C47.5173 33.1369 43.6788 30.1856 39.5931 30.177C34.2894 30.0295 30.9474 35.8843 31.6132 40.4179C31.2914 45.393 34.4435 50.212 39.8729 50.2363ZM83.2228 50.2372C90.2107 50.0515 91.812 43.534 91.0623 37.3773C90.8312 33.4024 87.2093 30.1718 83.1449 30.1709C77.683 30.1874 74.5729 35.1018 75.011 40.2374C74.5095 45.2551 77.7095 50.2415 83.2228 50.2372ZM40.0287 28.2901C42.8042 28.2901 45.269 29.5107 47.3529 31.9172C50.1147 34.8884 49.8614 39.4853 49.6329 43.3127C49.3342 47.6156 46.4868 48.0346 46.1548 51.3962C45.9468 54.18 46.2789 54.0351 47.7731 54.6242C52.9903 56.7296 58.2743 55.869 58.8888 63.0763H62.4251C64.7701 62.836 68.9406 63.7035 70.6642 62.4421C72.7114 60.4061 75.795 57.2753 78.1939 54.8306C79.4426 53.8894 80.847 51.9947 78.8067 51.1004C75.7051 49.3653 73.4346 46.6206 73.2608 42.9675C72.2287 36.7197 74.5592 29.5203 81.3785 28.4879C87.3762 27.0219 93.6212 32.7682 93.0478 39.1721C93.3046 43.573 92.7021 47.1697 89.0083 50.317C92.4872 51.7944 93.5836 54.8246 92.9408 59.3651H100.272C100.302 66.7935 100.294 74.2038 100.278 81.7034C100.474 88.476 95.9055 93.0139 89.6039 94.362C89.8855 97.407 90.1465 100.502 90.482 103.553C90.6643 105.259 90.8526 107.022 90.9758 108.754C91.1016 110.47 92.2117 110.654 93.0504 110.651C99.7978 110.623 104.809 110.638 111.133 110.637V112.532H0.927159V110.573C6.29668 110.72 11.6876 110.603 17.0683 110.637V79.5962H13.6577V70.4206H20.8057C20.6422 58.6199 20.0534 57.441 31.947 54.5929C34.4563 53.8703 33.7015 50.0246 31.9821 48.1942C30.8173 46.9875 30.1181 45.3418 29.9709 43.4845C28.6323 36.1333 31.7921 28.2442 40.0287 28.2901Z" fill="white"/>
<path d="M59.2587 22.5497C62.059 20.191 64.9209 17.7351 67.6741 15.477C67.9831 15.2237 68.4683 15.0432 68.8535 15.0397C73.291 14.9912 79.7834 15.0215 83.4763 15.0155V3.22865H46.6676V15.0233H59.2587V22.5497ZM56.4994 17.8218H43.8887V0.444824H86.2098V17.814C65.0647 18.1949 72.9581 14.822 56.4994 28.4913V17.8218Z" fill="black"/>
<path d="M47.1063 14.5793V3.67302H83.0386V14.5715C78.3058 14.575 73.5816 14.5515 68.8497 14.5958C68.3593 14.6001 67.7816 14.8187 67.399 15.1319C64.882 17.1957 62.4087 19.3133 59.6974 21.6026V14.5793H47.1063ZM86.6485 0H43.451V18.2662H56.0618V29.4249C72.9962 15.4963 64.8067 18.523 86.6485 18.2575V0ZM46.2299 15.4676H58.821V23.4981C59.9019 22.5942 61.2028 21.4821 62.2529 20.5972C64.2145 18.9359 66.0682 17.3657 67.9502 15.8224C68.1821 15.6325 68.5724 15.4867 68.8582 15.4841C74.381 15.4355 78.6747 15.4659 83.915 15.4598V2.78469H46.2299V15.4676ZM85.7722 0.888326V17.3692C65.4974 17.8073 72.7087 14.3017 56.9381 27.552V17.3779H44.3274V0.888326H85.7722ZM16.7754 73.6573H71.7304V76.3102H16.7754V73.6573Z" fill="white"/>
<path d="M72.1674 73.2134H16.3359V76.7545H72.1674V73.2134ZM71.291 75.8662H17.2123V74.1017H71.291V75.8662Z" fill="white"/>
<path d="M72.1741 7.30371H57.8867V10.8544H72.1741V7.30371ZM79.4264 7.33494H75.962V10.8371H79.4264V7.33494Z" fill="black"/>
</svg>
