<svg width="95" height="135" viewBox="0 0 95 135" fill="none" xmlns="http://www.w3.org/2000/svg">
<path d="M38.3883 21.1992C39.2872 21.1992 40.1871 21.2002 41.087 21.2011C41.9859 21.2021 42.8858 21.204 43.7857 21.204C45.071 21.204 46.3574 21.2011 47.6428 21.1934C49.2183 21.1837 49.8099 20.5821 49.8271 18.9745C49.8424 17.5506 49.8395 16.1036 49.8357 14.7039L49.8328 13.4175C49.829 11.0186 49.3395 10.5234 46.9223 10.4731C46.0511 10.4547 45.0625 10.4344 44.2179 10.1403C42.4211 9.51451 41.9668 7.88465 41.7597 6.37377C41.5202 4.63171 40.2186 3.41487 38.5935 3.41487C38.2757 3.41487 37.9551 3.46324 37.6392 3.55803C36.2346 3.97783 35.4511 4.9925 35.2431 6.65912C34.9291 9.16629 33.4815 10.4547 30.9403 10.4866L30.7456 10.4876C30.6101 10.4876 30.4737 10.4857 30.3382 10.4847C30.2007 10.4837 30.0643 10.4818 29.9269 10.4818C29.736 10.4818 29.5442 10.4847 29.3534 10.4944C27.7559 10.5727 27.129 11.2334 27.1146 12.8487C27.0975 14.9313 27.1041 17.0138 27.1127 18.7762C27.1223 20.5579 27.7464 21.1915 29.4984 21.1973C30.6855 21.2011 31.8726 21.2021 33.0588 21.2021L38.3883 21.1992ZM70.0174 58.8378H89.7373L70.0174 38.3877V58.8378ZM45.8011 65.3389C45.1588 65.3389 44.5071 65.6503 43.9173 66.2394C42.7799 67.373 41.6395 68.5425 40.5373 69.6732C40.1175 70.1037 39.6976 70.5341 39.2768 70.9636L36.2899 74.0163C33.9691 76.388 31.6493 78.7588 29.3247 81.1267C28.4707 81.9973 28.2626 82.9181 28.7388 83.721C29.0213 84.1969 29.4889 84.5557 29.9412 84.9039C30.1368 85.0539 30.3391 85.2096 30.5214 85.3702L30.5786 85.4214L30.6492 85.3914C30.905 85.2802 31.1445 85.196 31.3564 85.1216C31.7772 84.9745 32.1093 84.8575 32.3459 84.6176C37.4675 79.4282 42.4583 74.3258 47.1781 69.4527C47.7573 68.8549 48.055 68.1875 48.0398 67.5201C48.0264 66.9474 47.7802 66.4193 47.3279 65.9937C46.8727 65.5652 46.345 65.3389 45.8011 65.3389ZM4.90509 17.2508C4.65889 17.2517 4.41269 17.2788 4.17412 17.3049C4.06438 17.3175 3.95369 17.3291 3.84299 17.3388L3.73134 17.3485V102.632H19.9672V87.1635C19.9672 70.0804 19.9672 52.9974 19.9682 35.9143C19.9682 34.0659 20.2191 33.8105 22.0341 33.8105H37.645C47.2076 33.8105 57.4087 33.8096 67.7444 33.7951C68.8074 33.7951 69.5203 34.0881 70.1358 34.773C70.7074 35.4085 71.3305 36.0101 71.9909 36.6475C72.2943 36.9397 72.6083 37.2434 72.9356 37.5665L73.1427 37.7715V17.332H52.4227V17.8756C52.4237 18.1416 52.4246 18.3835 52.4217 18.6243C52.3864 22.1036 50.6993 23.7954 47.2649 23.7963C44.3391 23.7973 41.4133 23.7983 38.4876 23.7983C35.5628 23.7983 32.637 23.7973 29.7122 23.7963C27.9248 23.7954 26.6518 23.3833 25.8197 22.534C24.9981 21.6954 24.604 20.4283 24.6154 18.6611C24.6192 18.0904 24.5286 17.7528 24.3139 17.5342C24.102 17.3175 23.7766 17.2256 23.2251 17.2256H23.1878C19.8384 17.2498 16.5309 17.2527 13.7378 17.2527L7.06077 17.2498L4.90509 17.2508ZM38.7452 90.576C37.0905 92.5802 37.0791 95.1745 38.7147 96.8846C41.1252 99.4044 43.548 101.829 45.9175 104.092C46.6847 104.824 47.7277 105.227 48.8547 105.227C49.9693 105.227 51.0028 104.831 51.6898 104.138L51.7757 104.053L38.8321 90.4706L38.7452 90.576ZM36.8033 83.9976L58.1063 106.237L69.756 94.5651L48.3594 72.6176L36.8033 83.9976ZM74.5912 94.3078C73.969 94.3078 73.3354 94.6173 72.759 95.2035C67.9744 100.067 62.8929 105.246 57.9784 110.404C57.4927 110.915 57.2627 112.091 57.5232 112.733C57.7227 113.224 58.2285 113.557 58.7638 113.909C58.9919 114.059 59.2266 114.213 59.4366 114.381L59.5033 114.434L59.5749 114.389C59.8154 114.243 60.0387 114.124 60.2534 114.008C60.6675 113.786 61.0264 113.593 61.306 113.312C65.603 108.997 70.1205 104.427 75.953 98.498C77.0418 97.3914 77.1229 96.0344 76.16 95.04C75.6963 94.5612 75.1533 94.3078 74.5912 94.3078ZM29.5891 121.731H92.1373V61.5026H79.436C76.1161 61.5026 72.7982 61.5026 69.4783 61.5017C67.6318 61.5017 67.3541 61.2134 67.3531 59.2982C67.3522 54.5953 67.3522 49.8915 67.3531 45.1876V36.4715H22.5552V111.43L35.9196 97.4272L35.8748 97.346C34.3327 94.5796 34.6094 91.5723 36.6525 88.8765L36.7126 88.7972L34.5589 86.2097L34.4673 86.2755C34.3881 86.3316 34.3203 86.3781 34.2592 86.4196C34.1457 86.497 34.0569 86.558 33.9729 86.6295C33.1103 87.3666 32.0806 87.7564 30.9937 87.7564C29.57 87.7564 28.0899 87.0803 27.1318 85.9921C25.4313 84.0595 25.6527 81.2563 27.6719 79.1738C32.0434 74.6644 36.8052 69.7719 42.2292 64.2159C43.152 63.2699 44.3697 62.7495 45.6579 62.7495C46.595 62.7495 47.5216 63.028 48.3394 63.5562C50.1916 64.7517 51.0037 67.1506 50.2699 69.2602C50.0246 69.9644 49.8901 70.4103 50.079 70.6811C50.2718 70.9578 50.7613 70.9781 51.5448 70.9781L69.5079 70.979C70.1243 70.979 70.7417 70.9771 71.3591 70.9761C71.9756 70.9742 72.592 70.9723 73.2094 70.9723C74.3183 70.9723 75.221 70.9781 76.0493 70.9897C76.5627 70.9965 76.9969 71.1928 77.2412 71.5275C77.455 71.8206 77.5113 72.1968 77.3987 72.5876C77.1706 73.3837 76.6028 73.5394 75.6991 73.5394C72.0023 73.5336 68.3236 73.5326 64.6449 73.5326L53.2376 73.5336L53.3398 73.7184C53.398 73.8238 53.439 73.906 53.4724 73.9718C53.5296 74.0859 53.5669 74.1623 53.6289 74.2242L55.17 75.7864C57.4059 78.0537 59.7171 80.3984 62.0255 82.6676C62.3843 83.0206 63.0341 83.1512 63.5237 83.1551C65.7853 83.1754 68.0087 83.1783 69.8838 83.1783L75.473 83.1764C76.2669 83.1764 76.8328 83.3456 77.1553 83.6765C77.3634 83.8902 77.4664 84.1746 77.4617 84.5219C77.4512 85.3779 76.7641 85.8122 75.4186 85.8132C74.304 85.8141 67.6165 85.8132 67.6165 85.8132H65.5858L71.8372 92.4951L71.9174 92.4564C72.9279 91.966 73.8354 91.7271 74.6905 91.7271C75.7793 91.7271 76.744 92.115 77.6401 92.911C78.7251 93.8744 79.3225 95.0816 79.3673 96.4019C79.416 97.8229 78.7976 99.2631 77.6267 100.458C73.8221 104.34 69.9287 108.262 66.1641 112.054L63.1219 115.12C62.8204 115.423 62.5112 115.681 62.2011 115.885C61.3832 116.423 60.4528 116.707 59.5091 116.707C57.0652 116.707 55.0193 114.85 54.7492 112.388C54.6003 111.031 55.0756 109.741 56.2006 108.443L56.2713 108.36L53.9839 105.756L53.8923 105.837C52.4857 107.089 51.1154 107.698 49.703 107.698C49.5819 107.698 49.4597 107.693 49.3357 107.684C48.1944 107.597 47.0492 107.32 45.9413 107.051C45.4585 106.934 44.9594 106.812 44.4708 106.709L44.4059 106.696L29.5891 121.731ZM17.2466 120.954L21.9311 125.362L42.3743 104.446L37.8263 99.7767L17.2466 120.954ZM15.1081 122.995C14.8199 123.273 14.5145 123.55 14.191 123.844C13.4238 124.543 12.6308 125.264 11.9352 126.094C10.832 127.41 11.0019 129.302 12.3388 130.593C12.9381 131.172 13.7673 131.503 14.6128 131.503C15.361 131.503 16.0728 131.24 16.6168 130.763C17.3964 130.079 18.0873 129.319 18.8192 128.516C19.1399 128.164 19.4643 127.807 19.8012 127.453L19.887 127.362L15.1921 122.915L15.1081 122.995ZM14.4401 134.073C12.9476 134.073 11.5325 133.472 10.4551 132.38C7.96923 129.86 8.07897 126.226 10.7223 123.541C11.5973 122.651 12.4772 121.764 13.3561 120.877C15.2674 118.949 17.2447 116.955 19.1551 114.96C19.5912 114.504 19.9099 113.731 19.9319 113.077C19.992 111.256 19.9834 109.454 19.9739 107.546C19.9701 106.838 19.9662 106.119 19.9662 105.388V105.264L9.83196 105.265C7.57226 105.265 5.31256 105.264 3.05286 105.262C1.35427 105.261 1.03268 104.933 1.03268 103.201C1.03077 74.3597 1.03077 45.5175 1.03268 16.6762C1.03268 14.9912 1.37717 14.6507 3.08053 14.6507L24.6049 14.6498V14.526C24.6049 14.2735 24.6021 14.0278 24.6002 13.786C24.5954 13.2704 24.5906 12.7849 24.6097 12.2964C24.7061 9.82017 26.4867 8.02974 28.9402 7.94269C29.1711 7.93398 29.403 7.93302 29.6339 7.93302H29.9116C32.2715 7.92915 32.3259 7.88659 32.8068 5.65508L32.8135 5.62316C33.3384 3.19143 34.8614 1.61478 37.4703 0.804199H39.6279C42.2722 1.67184 43.7904 3.24754 44.2704 5.61833C44.7275 7.88175 44.7809 7.92528 47.1284 7.93302L47.4624 7.93205C47.554 7.93205 47.6466 7.93302 47.7382 7.93592C50.5543 8.02201 52.3025 9.77664 52.4151 12.6301C52.4313 13.0325 52.4275 13.4397 52.4227 13.8711C52.4208 14.082 52.4189 14.2987 52.4189 14.526V14.6498H73.6122C75.5102 14.6498 75.8203 14.9651 75.8203 16.8958L75.8222 21.0173C75.8251 26.9903 75.8289 33.1673 75.8041 39.2418C75.8003 40.1278 76.0532 40.7459 76.6773 41.3746C81.4658 46.2013 86.3163 51.1267 91.0065 55.8905L94.8779 59.8225V123.52C94.3636 124.283 93.6384 124.44 92.7108 124.44C82.6128 124.43 72.5224 124.427 62.4329 124.424C50.9035 124.421 39.3741 124.417 27.8456 124.403C26.9238 124.403 26.2892 124.676 25.646 125.346C23.6841 127.391 21.6438 129.428 19.6714 131.398L19.0034 132.065C17.7075 133.36 16.0862 134.073 14.4401 134.073Z" fill="black"/>
<path d="M14.6119 131.38C13.8122 131.38 13.0107 131.072 12.4219 130.503C11.1823 129.307 10.9266 127.488 12.0278 126.174C13.0107 125.002 14.2169 124.022 15.1912 123.085C16.6617 124.477 18.1885 125.924 19.7125 127.368C18.6198 128.518 17.656 129.685 16.5357 130.67C15.9851 131.153 15.299 131.38 14.6119 131.38ZM21.9273 125.191C20.389 123.743 18.8555 122.3 17.4213 120.951C24.25 113.923 31.0196 106.957 37.8254 99.9531C39.397 101.566 40.8437 103.051 42.2026 104.445C35.4321 111.373 28.6167 118.346 21.9273 125.191ZM59.511 114.284C58.8173 113.73 57.9021 113.344 57.6359 112.687C57.3964 112.096 57.6168 110.963 58.0653 110.491C62.9397 105.374 67.8885 100.328 72.845 95.2918C73.4156 94.7114 74.0149 94.4319 74.5903 94.4319C75.1199 94.4319 75.6286 94.6698 76.0723 95.1273C76.9693 96.054 76.9168 97.3414 75.8652 98.4112C70.9956 103.362 66.1184 108.305 61.2192 113.224C60.8146 113.631 60.2258 113.85 59.511 114.284ZM48.8538 105.104C47.8356 105.104 46.7897 104.756 46.0006 104.001C43.5471 101.658 41.1481 99.2528 38.8016 96.7998C37.1965 95.1215 37.2433 92.5882 38.8378 90.6556C43.0977 95.1264 47.3508 99.5894 51.603 104.051C50.9274 104.731 49.9054 105.104 48.8538 105.104ZM58.1073 106.061C51.1164 98.7633 44.051 91.3878 36.9751 84.0008C40.5021 80.5273 44.4165 76.6727 48.3566 72.793C55.2522 79.8657 62.3834 87.1802 69.5833 94.5653C65.8397 98.3145 62.0274 102.134 58.1073 106.061ZM30.6006 85.2776C29.9994 84.7446 29.2332 84.3151 28.8429 83.6574C28.3333 82.7994 28.715 81.9231 29.4107 81.2141C32.7325 77.8315 36.0457 74.4393 39.3627 71.0519C40.9067 69.4742 42.4392 67.886 44.0014 66.3277C44.5816 65.7493 45.2018 65.4629 45.8002 65.4629C46.3107 65.4629 46.805 65.6709 47.244 66.0839C48.1648 66.9516 48.1658 68.2555 47.0903 69.3659C42.1711 74.4451 37.2251 79.4981 32.2582 84.5308C31.9261 84.8684 31.345 84.9535 30.6006 85.2776ZM70.1387 58.7143V38.6917C76.7183 45.5148 83.1654 52.2006 89.4463 58.7143H70.1387ZM22.6764 111.124V36.5946H67.2301V39.6435C67.2301 46.1958 67.2291 52.7471 67.2301 59.2995C67.231 61.2727 67.5708 61.6248 69.4774 61.6258C72.7047 61.6267 75.9311 61.6267 79.1584 61.6267H92.0133V121.607H29.883C34.7908 116.627 39.6881 111.658 44.4451 106.831C46.0473 107.167 47.6724 107.682 49.3262 107.807C49.4521 107.817 49.5781 107.822 49.7021 107.822C51.2595 107.822 52.6756 107.085 53.9725 105.93C54.6825 106.739 55.3714 107.523 56.1081 108.361C55.1586 109.456 54.4487 110.78 54.6271 112.402C54.921 115.085 57.1263 116.831 59.5082 116.831C60.4348 116.831 61.389 116.566 62.267 115.989C62.6048 115.766 62.9206 115.496 63.2069 115.208C68.0488 110.326 72.9003 105.456 77.7127 100.545C80.084 98.1259 80.0812 94.9155 77.7203 92.8175C76.7661 91.9701 75.7507 91.6036 74.6896 91.6036C73.7773 91.6036 72.8316 91.8754 71.864 92.3445C69.8791 90.2233 67.8819 88.0885 65.8693 85.9382H72.156C73.2429 85.9382 74.3308 85.9382 75.4186 85.9373C76.8357 85.9353 77.5715 85.4527 77.5829 84.5241C77.5953 83.5694 76.8624 83.0538 75.4721 83.0528H74.5197C72.9795 83.0528 71.4384 83.0548 69.8973 83.0548C67.7731 83.0548 65.6479 83.0509 63.5237 83.0325C63.0437 83.0277 62.4301 82.8952 62.1095 82.5798C59.2801 79.797 56.5032 76.9609 53.7139 74.1365C53.6366 74.0582 53.6003 73.9392 53.4448 73.6577H54.8313C58.0749 73.6577 61.3184 73.6567 64.562 73.6567C68.2674 73.6567 71.9747 73.6577 75.6801 73.6635H75.6954C76.516 73.6635 77.2451 73.5639 77.5152 72.6227C77.7852 71.6825 77.1468 70.8816 76.0504 70.8661C75.1018 70.8526 74.1523 70.8487 73.2038 70.8487C71.9604 70.8487 70.7179 70.8555 69.4755 70.8555H59.5511C56.882 70.8555 54.213 70.8555 51.5439 70.8545C49.9636 70.8545 49.8825 70.7423 50.3844 69.3011C51.1355 67.1412 50.3014 64.6765 48.4044 63.452C47.5474 62.8987 46.596 62.6259 45.6561 62.6259C44.3745 62.6259 43.1139 63.1337 42.1415 64.1291C37.2814 69.1076 32.4271 74.092 27.5842 79.087C25.501 81.2353 25.2901 84.0878 27.0393 86.0746C27.9535 87.1135 29.4345 87.8805 30.9928 87.8805C32.0253 87.8805 33.0922 87.5439 34.0513 86.7246C34.1724 86.6211 34.3118 86.537 34.537 86.3774C35.1821 87.1522 35.8281 87.9279 36.5552 88.8014C34.5532 91.443 34.1486 94.5034 35.767 97.4072C31.386 101.998 27.0842 106.505 22.6764 111.124ZM13.7187 17.3768C16.8745 17.3768 20.0321 17.372 23.1879 17.3497H23.2242C24.1985 17.3497 24.4991 17.636 24.4924 18.6604C24.4685 22.2741 26.1452 23.9194 29.7103 23.9204C32.6428 23.9214 35.5733 23.9223 38.5058 23.9223C41.4249 23.9223 44.3449 23.9214 47.264 23.9204C50.7461 23.9194 52.5067 22.1513 52.543 18.6256C52.5468 18.2638 52.5439 17.902 52.5439 17.4561H73.0196V37.4777C71.9747 36.4447 71.0529 35.6109 70.2255 34.6891C69.5365 33.923 68.7493 33.6725 67.7511 33.6725H67.7435C57.6941 33.6851 47.6467 33.686 37.5973 33.686H28.715C26.4877 33.686 24.2605 33.686 22.0332 33.687C20.1591 33.687 19.8451 34.0072 19.8451 35.9146C19.8442 57.5429 19.8442 79.1712 19.8442 100.798V102.509H3.85259V17.4629C4.20471 17.4319 4.55397 17.3758 4.90419 17.3749C5.64565 17.3749 6.38616 17.3739 7.12762 17.3739C9.32434 17.3739 11.5211 17.3768 13.7187 17.3768ZM30.7438 10.6117C30.8087 10.6117 30.8755 10.6117 30.9413 10.6107C33.514 10.5788 35.0389 9.26426 35.3624 6.67487C35.5514 5.16689 36.2289 4.10869 37.6727 3.67631C37.9838 3.58346 38.292 3.53896 38.5926 3.53896C40.108 3.53896 41.402 4.67261 41.6377 6.39146C41.8753 8.12481 42.4259 9.6473 44.177 10.2577C45.0301 10.5546 45.9996 10.5788 46.9195 10.5972C49.2498 10.6455 49.706 11.0721 49.7098 13.4177C49.7117 15.2701 49.7241 17.1224 49.7041 18.9738C49.6878 20.5069 49.1525 21.0602 47.6409 21.0699C46.3565 21.0776 45.0711 21.0795 43.7857 21.0795C41.986 21.0795 40.1872 21.0757 38.3874 21.0757C36.6154 21.0757 34.8442 21.0786 33.0722 21.0786C31.8813 21.0786 30.6894 21.0776 29.4985 21.0737C27.8027 21.0679 27.2426 20.4972 27.234 18.7755C27.2244 16.8003 27.2197 14.8251 27.2359 12.85C27.2493 11.2907 27.8266 10.6939 29.3582 10.6175C29.5471 10.6088 29.7361 10.6059 29.925 10.6059C30.1979 10.6059 30.4708 10.6117 30.7438 10.6117ZM39.6461 0.680664H37.4513C34.9836 1.44288 33.263 2.95473 32.6933 5.59732C32.2172 7.80368 32.2277 7.80561 29.9097 7.80948H29.6607C29.4193 7.80948 29.1769 7.81045 28.9354 7.81915C26.4362 7.90814 24.5849 9.76144 24.4867 12.2918C24.458 13.0144 24.4819 13.7398 24.4819 14.5262H3.07963C1.32092 14.5272 0.909634 14.9277 0.909634 16.6765C0.907726 45.5177 0.907726 74.359 0.909634 103.201C0.909634 104.994 1.29516 105.385 3.05196 105.387C5.30689 105.388 7.56086 105.389 9.81579 105.389C12.6232 105.389 15.4297 105.388 18.2372 105.388H19.8432C19.8432 108.068 19.8919 110.573 19.8088 113.073C19.7888 113.688 19.4882 114.433 19.0664 114.873C16.2933 117.77 13.4477 120.596 10.6345 123.453C7.95115 126.179 7.84619 129.912 10.3674 132.468C11.5077 133.623 12.9544 134.198 14.4392 134.198C16.0605 134.198 17.7276 133.513 19.0884 132.154C21.3166 129.927 23.5515 127.706 25.7329 125.432C26.3456 124.794 26.9506 124.527 27.839 124.527H27.8447C49.4636 124.554 71.0825 124.542 92.7013 124.564H92.7099C93.6642 124.564 94.4495 124.399 94.9992 123.558V59.7705C88.9253 53.6051 82.859 47.431 76.7622 41.2869C76.1658 40.6862 75.9215 40.0933 75.9253 39.243C75.9549 31.794 75.9444 24.345 75.9416 16.8961C75.9416 14.9006 75.5704 14.5262 73.6113 14.5262H52.5401C52.5401 13.8288 52.5602 13.2262 52.5363 12.6255C52.4218 9.71888 50.6039 7.89944 47.7411 7.81238C47.6476 7.80948 47.5551 7.80851 47.4615 7.80851C47.368 7.80851 47.2755 7.80948 47.1819 7.80948H47.1323C44.8421 7.80174 44.8354 7.80368 44.3888 5.59442C43.8477 2.91991 42.0776 1.47383 39.6461 0.680664ZM14.6119 131.627C15.3896 131.627 16.1302 131.354 16.696 130.857C17.4804 130.168 18.1732 129.407 18.9071 128.602C19.2239 128.254 19.5522 127.893 19.8881 127.54L20.0598 127.358L19.8795 127.187L16.3611 123.854L15.3582 122.905L15.1902 122.745L15.0232 122.906C14.736 123.182 14.4306 123.459 14.1081 123.753C13.338 124.453 12.5421 125.178 11.8417 126.014C10.6947 127.382 10.8683 129.346 12.253 130.682C12.8752 131.283 13.735 131.627 14.6119 131.627ZM21.934 125.536L22.1 125.365L32.0549 115.18L42.3753 104.62L42.5452 104.446L42.3763 104.272L37.999 99.779L37.8254 99.601L37.6517 99.7799L23.9895 113.838L17.2476 120.777L17.0711 120.958L17.2552 121.133L21.0904 124.741L21.7603 125.372L21.934 125.536ZM59.4929 114.584L59.637 114.496C59.8746 114.352 60.096 114.233 60.3098 114.118C60.7335 113.891 61.0989 113.694 61.3909 113.4C65.6489 109.125 70.3028 104.417 76.0379 98.5863C77.1611 97.444 77.2451 95.9843 76.2469 94.9542C75.7584 94.4512 75.1858 94.1842 74.5903 94.1842C73.9348 94.1842 73.2715 94.5063 72.6713 95.1167C67.8866 99.9802 62.8033 105.161 57.8897 110.319C57.3763 110.858 57.134 112.101 57.4097 112.781C57.6225 113.306 58.1445 113.65 58.6961 114.013C58.9213 114.161 59.1541 114.314 59.3603 114.479L59.4929 114.584ZM48.8538 105.351C50.0008 105.351 51.0648 104.941 51.7748 104.226L51.9466 104.054L51.7786 103.879L39.0134 90.4834L38.8254 90.2861L38.6508 90.497C36.9551 92.5515 36.9446 95.2144 38.626 96.9719C41.0374 99.4917 43.4613 101.918 45.8326 104.182C46.6227 104.936 47.6953 105.351 48.8538 105.351ZM58.1035 106.413L58.2791 106.237L64.3129 100.193L69.7541 94.7414L69.9287 94.5673L69.757 94.3912L48.5313 72.6188L48.3605 72.4438L48.1868 72.615L36.8053 83.8228L36.6297 83.995L36.8005 84.1729L57.9317 106.235L58.1035 106.413ZM30.5558 85.5668L30.697 85.5049C30.948 85.3956 31.1856 85.3124 31.3955 85.2389C31.8135 85.0928 32.1742 84.9661 32.4309 84.7059C37.562 79.5078 42.5528 74.4054 47.265 69.54C47.8671 68.9181 48.1772 68.2187 48.161 67.5184C48.1467 66.911 47.8871 66.3519 47.41 65.9031C46.9319 65.4533 46.3756 65.2153 45.8002 65.2153C45.1255 65.2153 44.4441 65.5384 43.8306 66.1507C42.694 67.2843 41.5556 68.4528 40.4534 69.5816C40.0326 70.014 39.6108 70.4463 39.189 70.8768C38.1613 71.9272 37.1345 72.9767 36.1067 74.0272C33.8566 76.3264 31.5301 78.7049 29.2379 81.0399C28.34 81.954 28.1253 82.929 28.6329 83.7851C28.9278 84.2813 29.4049 84.6479 29.8658 85.0019C30.0605 85.1509 30.2609 85.3056 30.4394 85.4643L30.5558 85.5668ZM69.8944 58.9619H90.0275L89.621 58.5411L74.1294 42.4757L70.3133 38.5195L69.8944 38.0842V58.9619ZM22.4321 111.736L22.852 111.296L28.861 105L35.9426 97.5794L36.0695 97.4469L35.9798 97.2853C34.4644 94.5653 34.7374 91.6055 36.749 88.9523L36.8692 88.7946L36.7423 88.6418L36.5142 88.369L34.724 86.2178L34.5799 86.0446L34.3967 86.1742C34.3184 86.2303 34.2507 86.2758 34.1906 86.3174C34.0742 86.3967 33.9825 86.4596 33.8928 86.535C33.0531 87.2537 32.0502 87.6329 30.9928 87.6329C29.6025 87.6329 28.1577 86.9732 27.2216 85.9102C25.5659 84.0288 25.7864 81.2943 27.7579 79.2611C32.1399 74.741 36.9007 69.8486 42.3152 64.3032C43.2151 63.3814 44.4022 62.8736 45.657 62.8736C46.5703 62.8736 47.4749 63.1454 48.2727 63.6599C50.0781 64.8255 50.8692 67.1634 50.1535 69.2189C49.8959 69.9608 49.7556 70.4338 49.9779 70.753C50.1974 71.0673 50.645 71.1022 51.5439 71.1022C54.213 71.1031 56.882 71.1031 59.5511 71.1031H69.4755C70.0967 71.1031 70.7179 71.1012 71.3401 71.0993C71.9613 71.0983 72.5826 71.0964 73.2038 71.0964C74.3145 71.0964 75.2173 71.1022 76.0465 71.1138C76.5218 71.1205 76.9216 71.2985 77.142 71.6013C77.3329 71.8624 77.3816 72.201 77.2804 72.554C77.0714 73.2824 76.5828 73.4159 75.6954 73.4159V73.6635L75.6801 73.4159C71.6245 73.4101 67.608 73.4091 64.562 73.4091H59.6551L54.8313 73.4101H53.0287L53.232 73.7786C53.2892 73.8821 53.3293 73.9634 53.3618 74.0282C53.4228 74.1491 53.4658 74.2361 53.5412 74.3125C54.0565 74.8339 54.5708 75.3553 55.0861 75.8776C57.321 78.1439 59.6313 80.4876 61.9396 82.7569C62.3242 83.136 63.0094 83.2753 63.5218 83.2802C65.7882 83.2995 68.0164 83.3024 69.8973 83.3024C70.6683 83.3024 71.4384 83.3014 72.2094 83.3014C72.9795 83.3005 73.7496 83.3005 74.5197 83.3005H75.4721C76.2212 83.3014 76.7727 83.461 77.0676 83.7638C77.2537 83.9553 77.3424 84.2029 77.3386 84.5212C77.3291 85.295 76.683 85.6887 75.4177 85.6896C74.3308 85.6906 73.2429 85.6906 72.156 85.6906H65.3006L65.6918 86.1085L71.2027 91.9982L71.6865 92.5147L71.8086 92.6453L71.969 92.5679C72.9633 92.0862 73.8527 91.8512 74.6896 91.8512C75.7479 91.8512 76.6859 92.2284 77.5591 93.0042C78.6173 93.9444 79.2004 95.1206 79.2443 96.4061C79.291 97.7931 78.686 99.2005 77.539 100.371C73.7401 104.248 69.8514 108.164 66.0917 111.952C65.0725 112.978 64.0533 114.005 63.0351 115.032C62.7393 115.33 62.4359 115.582 62.1334 115.781C61.3356 116.306 60.4281 116.583 59.5082 116.583C57.1263 116.583 55.1329 114.774 54.8695 112.375C54.7244 111.054 55.1901 109.795 56.2913 108.524L56.4335 108.36L56.2904 108.196L55.3333 107.107L54.1548 105.765L53.9935 105.582L53.8112 105.744C52.4275 106.975 51.0839 107.574 49.7021 107.574C49.5838 107.574 49.4636 107.569 49.3443 107.561C48.2125 107.475 47.0722 107.198 45.9691 106.93C45.4853 106.813 44.9852 106.691 44.4947 106.589L44.3659 106.561L44.2724 106.656L29.7103 121.432L29.2933 121.855H92.2576V61.3791H79.1584C75.9311 61.3791 72.7047 61.3791 69.4774 61.3781C67.7187 61.3781 67.4753 61.1247 67.4744 59.2995C67.4734 54.5685 67.4734 49.8386 67.4734 45.1086L67.4744 39.6435V36.347H22.4321V111.736ZM13.7187 17.1292C12.6194 17.1292 11.5211 17.1282 10.4237 17.1272C9.32434 17.1272 8.22598 17.1263 7.12762 17.1263C6.38616 17.1263 5.64565 17.1272 4.90419 17.1272C4.65226 17.1282 4.40224 17.1553 4.16081 17.1824C4.05203 17.194 3.94229 17.2066 3.83159 17.2162L3.6083 17.2356V102.756H20.0884V87.0042C20.0884 69.9743 20.0884 52.9445 20.0894 35.9146C20.0894 34.1377 20.2898 33.9346 22.0332 33.9346L28.715 33.9336H37.5973C47.1886 33.9336 57.4164 33.9327 67.7511 33.9201C68.7684 33.9201 69.4545 34.1996 70.0442 34.8564C70.6187 35.4958 71.2437 36.0984 71.905 36.7368C72.2094 37.0299 72.5234 37.3326 72.8488 37.6557L73.2639 38.0658V17.2085H52.2997V17.8759C52.3006 18.1419 52.3016 18.3828 52.2987 18.6226C52.2634 22.0197 50.6163 23.6718 47.2631 23.6728C44.3449 23.6738 41.4249 23.6747 38.5058 23.6747C35.5733 23.6747 32.6428 23.6738 29.7113 23.6728C27.9583 23.6728 26.713 23.2714 25.9056 22.4473C25.1079 21.6328 24.7252 20.3947 24.7367 18.6623C24.7405 18.0558 24.6393 17.6921 24.3998 17.4474C24.1632 17.2056 23.811 17.1021 23.2242 17.1021H23.186C19.8346 17.1253 16.5195 17.1292 13.7187 17.1292ZM30.7438 10.3641C30.6083 10.3641 30.4718 10.3631 30.3363 10.3612C30.1998 10.3602 30.0624 10.3583 29.925 10.3583C29.7008 10.3583 29.5175 10.3621 29.3467 10.3708C27.6882 10.4521 27.0059 11.1698 26.9916 12.847C26.9744 14.9286 26.9811 17.0121 26.9897 18.7774C26.9992 20.6259 27.6787 21.3155 29.4975 21.3213C30.6894 21.3252 31.8803 21.3262 33.0722 21.3262C34.0312 21.3262 34.9912 21.3252 35.9502 21.3242C36.7623 21.3242 37.5754 21.3233 38.3874 21.3233C39.2873 21.3233 40.1872 21.3242 41.0861 21.3252C41.986 21.3262 42.8858 21.3272 43.7857 21.3272C45.2858 21.3272 46.5111 21.3242 47.6428 21.3175C49.2842 21.3068 49.9312 20.651 49.9483 18.9767C49.9636 17.5509 49.9598 16.1029 49.9569 14.7023C49.955 14.2738 49.9541 13.8453 49.9541 13.4177C49.9503 10.9454 49.4121 10.4008 46.9243 10.3495C46.0616 10.3321 45.0835 10.3118 44.2571 10.0236C42.5223 9.41999 42.0814 7.83076 41.8791 6.35663C41.6319 4.5517 40.2807 3.29134 38.5926 3.29134C38.2634 3.29134 37.9303 3.34067 37.603 3.43933C36.1478 3.87557 35.3357 4.92313 35.12 6.64391C34.8156 9.08048 33.409 10.3321 30.9384 10.3631C30.8736 10.3641 30.8077 10.3641 30.7438 10.3641ZM39.607 0.928286C42.2303 1.79303 43.6741 3.29231 44.1493 5.64375C44.6178 7.95844 44.7295 8.0484 47.1314 8.0571H47.1819L47.3232 8.05614H47.4615C47.5522 8.05614 47.6428 8.0571 47.7335 8.06001C50.478 8.14416 52.1823 9.8543 52.292 12.6362C52.3082 13.0347 52.3044 13.441 52.2997 13.8704C52.2977 14.0813 52.2958 14.298 52.2958 14.5262V14.7739H73.6113C75.4434 14.7739 75.6973 15.0321 75.6973 16.8961L75.6992 20.9934C75.702 26.9741 75.7059 33.1589 75.6811 39.2421C75.6772 40.1523 75.9492 40.8168 76.5905 41.4629C81.3503 46.2596 86.1703 51.156 90.8329 55.8908C92.1402 57.2189 93.4476 58.546 94.7549 59.8731V123.482C94.2711 124.173 93.585 124.317 92.7013 124.317C82.652 124.306 72.4337 124.303 62.5523 124.3C51.1765 124.297 39.4142 124.294 27.839 124.279C26.8866 124.279 26.2263 124.563 25.5573 125.26C23.5973 127.303 21.5599 129.338 19.5884 131.306L18.9166 131.978C17.6436 133.25 16.0538 133.95 14.4392 133.95C12.9792 133.95 11.5945 133.362 10.5401 132.293C8.10479 129.824 8.21549 126.262 10.8073 123.628C11.6833 122.738 12.5622 121.852 13.4401 120.966C15.3534 119.037 17.3306 117.043 19.242 115.046C19.6972 114.571 20.0302 113.763 20.0531 113.081C20.1133 111.259 20.1047 109.455 20.0951 107.545C20.0913 106.837 20.0875 106.119 20.0875 105.388V105.141H14.027L9.81579 105.142C7.56086 105.142 5.30689 105.141 3.05196 105.14C1.4383 105.138 1.15393 104.847 1.15393 103.201C1.15202 74.359 1.15202 45.5177 1.15393 16.6765C1.15393 15.0766 1.46025 14.7748 3.07963 14.7739H24.7262V14.5262C24.7262 14.2738 24.7233 14.0271 24.7214 13.7853C24.7166 13.2717 24.7109 12.7871 24.73 12.3015C24.8245 9.89299 26.5574 8.1519 28.944 8.06678C29.1797 8.05807 29.4173 8.0571 29.6607 8.0571H29.9107C32.3202 8.05323 32.4328 7.96425 32.9252 5.68148L32.9319 5.65052C33.4453 3.27103 34.9349 1.72629 37.4876 0.928286H39.607Z" fill="white"/>
<path d="M32.6804 57.6309C31.6784 57.6309 31.1612 57.1937 31.1431 56.3318C31.1345 55.9314 31.2375 55.617 31.4494 55.3984C31.7109 55.1276 32.1403 54.9912 32.7243 54.9912L57.2823 54.9893C57.3749 54.9893 57.4674 54.9893 57.56 54.9912C58.2299 55.0047 58.7309 55.175 59.0105 55.4845C59.2061 55.7021 59.2939 55.9885 59.27 56.3347C59.209 57.2179 58.6917 57.629 57.6411 57.629H57.6163C57.3319 57.627 57.0475 57.627 56.7632 57.627L55.3022 57.629H33.5087L33.0411 57.626C32.9524 57.626 32.8636 57.627 32.7749 57.629C32.7434 57.6299 32.7119 57.6309 32.6804 57.6309Z" fill="black"/>
<path d="M57.2843 54.8657C57.1345 54.8657 56.9837 54.8667 56.833 54.8667H36.7447C35.759 54.8667 34.7742 54.8677 33.7884 54.8677C33.4344 54.8677 33.0813 54.8677 32.7273 54.8667H32.7254C31.7444 54.8667 30.9991 55.2488 31.022 56.335C31.043 57.3777 31.7482 57.755 32.6805 57.755C32.7139 57.755 32.7464 57.754 32.7798 57.753C32.8675 57.7511 32.9544 57.7501 33.0422 57.7501C33.1977 57.7501 33.3542 57.753 33.5107 57.753H55.3033C55.7928 57.753 56.2823 57.7511 56.7719 57.7511C57.0534 57.7511 57.3349 57.7521 57.6164 57.753H57.6422C58.5917 57.753 59.3179 57.4319 59.3932 56.3437C59.4562 55.4132 58.7758 54.8918 57.5639 54.8677C57.4704 54.8657 57.3778 54.8657 57.2843 54.8657ZM57.2843 55.1133C57.3759 55.1133 57.4675 55.1133 57.5592 55.1153C58.1937 55.1279 58.6651 55.2846 58.9209 55.5689C59.0936 55.7605 59.1709 56.0148 59.149 56.3273C59.0936 57.1417 58.6279 57.5054 57.6422 57.5054H57.6183C57.3359 57.5044 57.0534 57.5035 56.7719 57.5035L56.0371 57.5044L55.3033 57.5054H33.5107C33.4325 57.5054 33.3552 57.5044 33.2779 57.5035C33.1996 57.5035 33.1214 57.5025 33.0422 57.5025C32.9525 57.5025 32.8628 57.5035 32.7731 57.5054C32.7425 57.5064 32.711 57.5074 32.6805 57.5074C31.7453 57.5074 31.2825 57.1224 31.2663 56.3302C31.2587 55.9636 31.3503 55.6802 31.5383 55.4857C31.7749 55.2391 32.1748 55.1143 32.7273 55.1143L33.7884 55.1153L35.2666 55.1143H56.833L57.0601 55.1133H57.2843Z" fill="white"/>
<path d="M50.1699 45.1096C48.9189 45.099 47.6678 45.096 46.4168 45.096C45.6009 45.096 44.785 45.098 43.9691 45.099C43.1532 45.0999 42.3364 45.1019 41.5205 45.1019L36.5793 45.1028C35.3435 45.1028 34.1077 45.1019 32.8729 45.099C32.1639 45.098 31.6619 44.9442 31.3823 44.6424C31.1924 44.4393 31.1066 44.1636 31.1257 43.8231C31.1858 42.7572 31.8662 42.5386 32.8681 42.5386C35.6584 42.5463 38.4305 42.5482 41.2008 42.5482L46.5895 42.5473C47.7881 42.5473 48.9857 42.5473 50.1842 42.5482C50.8808 42.5492 51.4009 42.7166 51.691 43.0309C51.88 43.2369 51.9649 43.5039 51.942 43.8221C51.878 44.7362 51.378 45.1096 50.2176 45.1096H50.1699Z" fill="black"/>
<path d="M32.8674 42.4146C31.8721 42.4146 31.0705 42.6293 31.0028 43.8152C30.9513 44.7418 31.6154 45.2196 32.8722 45.2226C34.0889 45.2255 35.3065 45.2264 36.5242 45.2264C38.1779 45.2264 39.8326 45.2255 41.4873 45.2255H41.5197C43.1477 45.2255 44.7747 45.2196 46.4027 45.2196C47.6576 45.2196 48.9124 45.2235 50.1682 45.2332H50.2169C51.2017 45.2332 51.9813 44.9885 52.0634 43.8306C52.1264 42.9369 51.4116 42.4262 50.1835 42.4242C48.9725 42.4233 47.7616 42.4233 46.5506 42.4233C44.77 42.4233 42.9903 42.4242 41.2096 42.4242C38.4356 42.4242 35.6615 42.4223 32.8875 42.4146H32.8674ZM32.8674 42.6622H32.8865C35.8094 42.6709 38.7342 42.6718 41.2096 42.6718L43.8796 42.6709H46.5506C47.7616 42.6709 48.9725 42.6709 50.1835 42.6718C50.8353 42.6728 51.3391 42.8305 51.6006 43.1158C51.7657 43.2957 51.8392 43.5308 51.8191 43.8132C51.76 44.6567 51.3105 44.9856 50.2169 44.9856H50.1702C49.0708 44.9769 47.8742 44.972 46.4027 44.972C45.5887 44.972 44.7747 44.974 43.9607 44.9749C43.1468 44.9759 42.3337 44.9778 41.5197 44.9778H39.0053L36.5242 44.9788C35.3065 44.9788 34.0898 44.9778 32.8722 44.9749C32.208 44.974 31.7223 44.8298 31.4704 44.558C31.3024 44.3781 31.2299 44.1392 31.2471 43.8297C31.2948 42.9785 31.7347 42.6622 32.8674 42.6622Z" fill="white"/>
</svg>
